<svg width="33" height="32" viewBox="0 0 33 32" fill="none" xmlns="http://www.w3.org/2000/svg">
<path d="M8.91057 24.2469C8.71108 24.164 8.51159 24.0894 8.45341 24.0811C8.40353 24.0645 8.27054 24.1142 8.1708 24.1806C8.07105 24.2469 7.99624 24.3547 8.00455 24.421C8.00455 24.4874 7.91312 24.5786 7.78013 24.6283C7.65544 24.6698 7.36452 24.8439 7.14009 24.9932C6.90735 25.1507 6.64137 25.3829 6.54162 25.5073C6.42525 25.6649 6.392 25.7809 6.44188 25.8639C6.48344 25.9302 6.51669 25.9634 6.51669 25.9302C6.51669 25.8887 6.59149 25.9302 6.68293 26.0131C6.78267 26.0877 6.88242 26.1541 6.91567 26.1541C6.94891 26.1541 7.03204 26.1955 7.09853 26.2536C7.16503 26.3116 7.24815 26.3531 7.27309 26.3448C7.29802 26.3282 7.38114 26.3863 7.45595 26.4692C7.53076 26.5438 7.63051 26.5936 7.68038 26.5687C7.73025 26.5438 7.7635 26.577 7.7635 26.635C7.75519 26.7014 7.79675 26.7014 7.88818 26.6102C7.96299 26.5438 8.02118 26.5106 8.01287 26.5521C8.01287 26.5853 8.13755 26.4858 8.29548 26.3448C8.45341 26.1955 8.64459 26.0048 8.73602 25.9302C8.81914 25.8556 9.01032 25.7561 9.16825 25.7229C9.3428 25.6814 9.4758 25.5902 9.51736 25.4741C9.57554 25.3166 9.65866 25.2834 9.92465 25.2834C10.2405 25.2834 10.2571 25.2668 10.2322 25.0512C10.2239 24.9269 10.174 24.8439 10.1325 24.8522C10.0826 24.8688 10.0327 24.8439 10.0078 24.7859C9.98284 24.7361 9.87478 24.6864 9.77503 24.6781C9.67529 24.6698 9.59217 24.6366 9.59217 24.5952C9.59217 24.562 9.55061 24.5537 9.50904 24.5786C9.45917 24.6035 9.42592 24.5869 9.42592 24.5371C9.42592 24.4874 9.38436 24.4708 9.3428 24.4957C9.29293 24.5205 9.25968 24.504 9.25968 24.4708C9.25968 24.4293 9.10175 24.3298 8.91057 24.2469Z" fill="#00BAE5"/>
<path d="M20.4977 24.4791C20.373 24.4045 20.2067 24.2635 20.1319 24.1723C19.9906 23.9981 19.9823 23.9981 19.9906 24.164C19.9906 24.2967 19.9657 24.3132 19.8826 24.2303C19.7994 24.1474 19.6914 24.1557 19.3423 24.2967C19.1012 24.3962 18.91 24.5123 18.91 24.5454C18.9017 24.5869 18.8685 24.6035 18.8186 24.5786C18.7687 24.5537 18.7355 24.562 18.7355 24.6035C18.7355 24.6366 18.6524 24.6698 18.5609 24.6781C18.4612 24.6864 18.3531 24.7361 18.3282 24.7859C18.3033 24.8439 18.2451 24.8688 18.2035 24.8522C18.162 24.8439 18.1121 24.8605 18.0955 24.9103C18.0788 24.96 18.1536 25.0844 18.2534 25.2005C18.4196 25.3912 18.4363 25.3995 18.4778 25.2502C18.5277 25.1093 18.536 25.1093 18.6524 25.242C18.7189 25.3249 18.8768 25.441 19.0015 25.499C19.1345 25.5653 19.2342 25.5819 19.2342 25.5322C19.2342 25.4824 19.4337 25.5571 19.6664 25.698C19.9075 25.8307 20.2067 26.0877 20.3314 26.2536C20.4561 26.4277 20.5392 26.5936 20.5226 26.635C20.4977 26.6682 20.5392 26.6765 20.6057 26.6516C20.6722 26.6267 20.7304 26.577 20.7304 26.5272C20.7304 26.4775 20.7636 26.4609 20.8135 26.4858C20.8634 26.5106 20.8966 26.4941 20.8966 26.4443C20.8966 26.3946 20.9299 26.378 20.9798 26.4028C21.0296 26.4277 21.0629 26.4111 21.0629 26.3614C21.0629 26.3116 21.0878 26.2951 21.1211 26.3199C21.1626 26.3365 21.2707 26.2868 21.3704 26.1955C21.4785 26.1043 21.5949 26.0297 21.6447 26.0297C21.6946 26.0297 21.7278 25.9965 21.7278 25.9468C21.7278 25.897 21.7611 25.8804 21.811 25.9053C21.8608 25.9302 21.919 25.8887 21.9523 25.8141C21.9938 25.7395 22.052 25.6814 22.1019 25.6731C22.1518 25.6731 22.2266 25.6234 22.2764 25.5819C22.3429 25.5156 22.2598 25.3912 21.9855 25.1425C21.7777 24.9517 21.545 24.7859 21.4785 24.7859C21.412 24.7859 21.2291 24.6947 21.0712 24.5952C20.8634 24.4708 20.772 24.4459 20.7553 24.5205C20.7387 24.5952 20.6722 24.5869 20.4977 24.4791Z" fill="#00BAE5"/>
<path d="M25.4932 24.1391L25.2272 24.1142L25.2189 24.6781C25.2106 25.2005 25.194 25.2668 24.928 25.5571C24.7451 25.7478 24.6371 25.9468 24.6371 26.0877C24.6371 26.2619 24.7618 26.4526 25.1275 26.8175C25.5847 27.2818 25.6262 27.2984 25.6678 27.1326C25.6927 27.0248 25.7758 26.9253 25.8423 26.9004C25.9421 26.8672 25.967 26.6599 25.967 25.7395C25.967 25.0512 25.9338 24.62 25.8839 24.62C25.834 24.62 25.7925 24.5205 25.7758 24.3962C25.7592 24.2054 25.7177 24.1557 25.4932 24.1391Z" fill="#00BAE5"/>
<path d="M2.52688 14.0891C2.46038 14.0476 2.26921 14.0061 2.11128 13.9813C1.95335 13.9647 1.68736 13.9813 1.52943 14.0227C1.3715 14.0642 1.25513 14.1305 1.26344 14.172C1.27175 14.2217 1.0972 14.2383 0.839523 14.2217C0.606784 14.2052 0.31586 14.1554 0.207803 14.1139L0 14.0476C0.0831211 15.2665 0.141306 15.7972 0.174554 16.0045C0.232739 16.3694 0.257675 16.386 0.423918 16.3196C0.531975 16.2782 0.764714 16.245 0.947581 16.245C1.14707 16.245 1.28838 16.2865 1.305 16.3528C1.32994 16.4274 1.41306 16.4274 1.70398 16.3362C1.90347 16.2782 2.16946 16.1787 2.29414 16.1123C2.42714 16.046 2.60169 15.9963 2.69312 15.9963C2.81781 15.9963 2.85105 15.9548 2.82612 15.8138C2.80118 15.706 2.75962 15.2914 2.71806 14.8851C2.66819 14.371 2.61831 14.1305 2.52688 14.0891Z" fill="#00CFDD"/>
<path d="M28.2529 14.1139C28.2113 13.9315 28.1781 13.9232 27.5463 13.9481C27.1889 13.9564 26.8564 13.973 26.8232 13.9813C26.7899 13.9896 26.5156 14.0144 26.2164 14.0227L25.6761 14.0476C25.5847 15.1422 25.5431 15.5734 25.5182 15.706C25.4683 15.9465 25.4766 15.9548 25.8008 15.9797C25.9837 15.988 26.3078 16.0543 26.5239 16.1289C26.765 16.2118 27.031 16.245 27.1889 16.2118C27.3552 16.187 27.4632 16.1953 27.4632 16.245C27.4632 16.2948 27.6045 16.3196 27.7791 16.3114C27.9536 16.2948 28.1032 16.2533 28.1116 16.2036C28.1116 16.1621 28.1531 15.8967 28.203 15.6231C28.2529 15.3495 28.2944 14.9432 28.2944 14.711C28.2944 14.4871 28.2778 14.2135 28.2529 14.1139Z" fill="#00CFDD"/>
<path d="M5.50262 3.31763L5.20338 3.14349L4.26411 4.0805C3.74045 4.6029 3.19185 5.19993 3.04223 5.40724L2.77625 5.79696C3.2916 5.92964 3.46615 5.94622 3.4994 5.92964C3.54096 5.90476 3.80695 5.9711 4.10618 6.0789C4.40542 6.1784 4.8044 6.36083 4.99558 6.48521L5.353 6.7091C6.41695 5.66429 6.95724 5.19164 7.24816 4.97605C7.53077 4.76874 7.76351 4.54486 7.76351 4.49511C7.76351 4.43706 7.66377 4.27122 7.53077 4.13855C7.40609 3.99758 7.29803 3.90637 7.28141 3.93124C7.2731 3.95612 7.11517 3.88149 6.9323 3.7654C6.74943 3.64931 6.56657 3.57468 6.51669 3.59956C6.46682 3.62444 6.28396 3.56639 6.10109 3.47518C5.91822 3.38396 5.77692 3.3508 5.77692 3.40055C5.78523 3.4503 5.66055 3.40884 5.50262 3.31763Z" fill="#00E5D4"/>
<path d="M23.9638 3.99758C23.49 3.52493 23.0412 3.14349 22.9664 3.15179C22.8999 3.16008 22.6921 3.21812 22.5092 3.29275C22.2765 3.38396 22.185 3.45859 22.2016 3.57468C22.21 3.6576 22.1767 3.73223 22.1185 3.73223C22.0603 3.73223 21.7195 3.88149 21.3704 4.06392C20.8883 4.30439 20.7221 4.36243 20.7221 4.27122C20.7221 4.19659 20.7138 4.13855 20.7055 4.13855C20.6888 4.13855 20.5891 4.1883 20.4644 4.24634C20.3148 4.32097 20.2732 4.37072 20.3397 4.43706C20.3896 4.47852 20.7138 4.72728 21.0546 4.97605C21.4037 5.2331 21.9606 5.72234 22.3014 6.0706C22.7586 6.53496 22.958 6.68422 23.0495 6.63447C23.1243 6.59301 23.3238 6.55155 23.5066 6.52667C23.6895 6.51009 23.9804 6.43546 24.155 6.37741C24.3295 6.31107 24.4625 6.21986 24.4625 6.1784C24.4625 6.12865 24.6288 6.03744 24.8366 5.9711C25.1026 5.87989 25.2189 5.79696 25.2189 5.69746C25.2106 5.61454 25.2522 5.55649 25.2938 5.55649C25.3436 5.55649 25.2605 5.39065 25.1109 5.19993C24.9613 5.00922 24.4459 4.46194 23.9638 3.99758Z" fill="#00E5D4"/>
<path d="M26.1832 24.2883C26.0336 24.1308 25.8008 23.8986 25.6679 23.7825C25.5265 23.6664 25.3686 23.5835 25.3021 23.6001C25.2356 23.625 25.1941 23.7328 25.2024 23.882C25.219 24.0893 25.2522 24.1225 25.4933 24.1474C25.7177 24.164 25.7593 24.1971 25.7842 24.3961C25.7925 24.5205 25.8424 24.62 25.884 24.62C25.9338 24.62 25.9671 25.0429 25.9671 25.7229C25.9671 26.7179 25.9505 26.834 25.8008 26.9667C25.7094 27.0413 25.6346 27.1574 25.6346 27.2155C25.6346 27.2652 25.7427 27.4311 25.884 27.5637C26.1333 27.8042 26.15 27.8042 26.2414 27.6466C26.2913 27.5554 26.4159 27.4062 26.524 27.315C26.6819 27.174 26.7069 27.0662 26.7152 26.5936C26.7152 26.1458 26.7401 26.0297 26.8399 26.0297C26.9313 26.0297 26.9562 25.9551 26.9479 25.7809C26.923 25.557 26.9479 25.5322 27.1723 25.5322H27.4217C26.8565 24.96 26.7484 24.8937 26.7401 24.9849C26.7235 25.0844 26.6736 25.101 26.5739 25.0429C26.4908 25.0098 26.3993 24.902 26.3578 24.819C26.3245 24.7278 26.3328 24.6449 26.3744 24.62C26.4159 24.5952 26.3328 24.4459 26.1832 24.2883Z" fill="#00B7E5"/>
<path d="M10.9637 25.1259C10.9222 25.0927 10.7559 25.0181 10.6146 24.9683C10.465 24.9185 10.3154 24.902 10.2904 24.9268C10.2572 24.96 10.2323 25.0512 10.2406 25.1341C10.2572 25.2585 10.199 25.2834 9.92472 25.2834C9.65873 25.2834 9.57561 25.3166 9.51742 25.4741C9.47586 25.5902 9.34287 25.6814 9.16831 25.7229C9.01038 25.7561 8.82752 25.839 8.76102 25.9053C8.69452 25.9634 8.50335 26.1375 8.34542 26.2867C8.18748 26.4443 8.02955 26.5521 7.99631 26.5438C7.95475 26.5355 7.92981 26.5853 7.92981 26.6516C7.92981 26.7179 7.97137 26.7594 8.01293 26.7345C8.0628 26.7096 8.09605 26.7345 8.09605 26.776C8.09605 26.8257 8.13761 26.8423 8.17917 26.8174C8.22905 26.7926 8.26229 26.8174 8.26229 26.8589C8.26229 26.9087 8.30385 26.9252 8.34542 26.9004C8.39529 26.8755 8.42854 26.9004 8.42854 26.9418C8.42854 26.9916 8.4701 27.0082 8.51166 26.9833C8.56153 26.9584 8.60309 26.975 8.61971 27.0247C8.62803 27.0662 8.72777 27.116 8.84414 27.1408C8.96051 27.1574 9.06857 27.1823 9.0935 27.1906C9.11844 27.2072 9.16 27.2072 9.20156 27.1989C9.23481 27.1989 9.25975 27.232 9.25975 27.2735C9.25975 27.3233 9.38443 27.3813 9.53405 27.4145L9.53406 27.4145C9.67536 27.4476 9.81666 27.4808 9.84159 27.4808C9.86653 27.4891 9.9829 27.5389 10.1159 27.5886C10.2406 27.6466 10.3653 27.6881 10.4068 27.6881C10.4401 27.6881 10.5398 27.6135 10.6312 27.5223C10.7227 27.4393 11.0136 27.2486 11.2796 27.116C11.6453 26.9169 11.7534 26.8838 11.7534 26.9833C11.7534 27.0828 11.8282 27.0662 12.1274 26.9004C12.4848 26.7013 12.5015 26.7013 12.5015 26.8589C12.5015 27.0164 12.5181 27.0164 12.8755 26.8174C13.1748 26.6516 13.2496 26.635 13.2496 26.7345C13.2496 26.8009 13.2994 26.8589 13.3576 26.8589C13.4075 26.8589 13.582 26.7843 13.7317 26.6931C13.9977 26.5272 13.9976 26.5272 13.9976 26.6931C13.9976 26.7843 14.0143 26.8589 14.0392 26.8589C14.0641 26.8589 14.2055 26.7843 14.3551 26.6931C14.4964 26.6018 14.646 26.5272 14.6876 26.5272C14.7208 26.5272 14.7457 26.6018 14.7457 26.6931C14.7457 26.8506 14.7624 26.8506 15.0367 26.7345C15.1946 26.6682 15.3691 26.6101 15.4107 26.6101C15.4606 26.6101 15.4938 26.6682 15.4938 26.7345C15.4938 26.8174 15.552 26.8423 15.685 26.8174C15.7848 26.7926 15.951 26.7594 16.0591 26.7345C16.1837 26.7096 16.2419 26.7345 16.2419 26.8174C16.2419 26.9169 16.3167 26.9335 16.616 26.9004C16.9152 26.8672 16.99 26.8838 16.99 26.9833C16.99 27.0745 17.0482 27.0994 17.2227 27.0579C17.389 27.0247 17.5137 27.0662 17.7215 27.2486C17.8711 27.373 17.9791 27.5306 17.9542 27.5886C17.9293 27.6384 17.921 27.6881 17.9459 27.6881C17.9708 27.6881 18.0872 27.6466 18.2202 27.5886C18.3449 27.5389 18.4696 27.4808 18.5111 27.4642C18.5444 27.4559 18.5859 27.4393 18.6109 27.4393C18.6358 27.4393 18.694 27.4228 18.7356 27.3979C18.7854 27.373 18.827 27.3564 18.8436 27.3481C18.8519 27.3481 18.9517 27.3233 19.068 27.3067C19.1844 27.2818 19.3008 27.2238 19.334 27.1657C19.3673 27.1077 19.4005 27.0911 19.4005 27.1325C19.4005 27.1657 19.4836 27.1491 19.5917 27.0911C19.6914 27.033 19.7995 26.9999 19.8411 27.0082C19.8743 27.0164 19.8992 26.9916 19.8992 26.9418C19.8992 26.9004 19.9242 26.8755 19.9657 26.8921C19.999 26.9169 20.1486 26.8589 20.2982 26.7677C20.5143 26.6433 20.5476 26.5853 20.4811 26.4692C20.4395 26.3863 20.3232 26.2204 20.2151 26.1043C20.1071 25.9882 19.8494 25.7892 19.6333 25.6648C19.4088 25.5487 19.2343 25.4907 19.2343 25.5322C19.2343 25.5819 19.1345 25.5653 19.0099 25.499C18.8769 25.441 18.7189 25.3249 18.6524 25.2419C18.5361 25.1093 18.5278 25.1093 18.4779 25.2502C18.4363 25.3912 18.4031 25.3829 18.187 25.1424C17.9708 24.902 17.921 24.8854 17.6965 24.9683C17.5635 25.0181 17.4139 25.0927 17.3641 25.1259C17.3225 25.1673 17.256 25.1756 17.2227 25.1341C17.1895 25.101 17.1147 25.1259 17.0565 25.1756C16.9983 25.2336 16.9152 25.2585 16.8736 25.2336C16.8321 25.2088 16.7573 25.2171 16.7074 25.2502C16.6575 25.2917 16.5412 25.3249 16.4497 25.3414C16.3583 25.3497 16.1671 25.3829 16.0341 25.3995C15.9011 25.4161 15.5437 25.4575 15.2445 25.4907C14.9452 25.5239 14.4631 25.5487 14.1639 25.5487C13.8647 25.5487 13.3826 25.5239 13.0833 25.4907C12.7841 25.4575 12.435 25.4161 12.2937 25.3995C12.1607 25.3829 11.9695 25.358 11.8781 25.3414C11.7866 25.3332 11.6619 25.2917 11.6121 25.2585C11.5539 25.2254 11.4791 25.2171 11.4458 25.2419C11.4043 25.2668 11.3295 25.2336 11.2713 25.1756C11.2131 25.1259 11.1383 25.101 11.105 25.1341C11.0718 25.1756 11.0136 25.1673 10.9637 25.1259Z" fill="#00B7E5"/>
<path d="M5.27816 21.3529C5.28647 21.2866 5.25322 21.212 5.20335 21.1871C5.16179 21.1622 5.09529 21.1622 5.05373 21.1954C5.02048 21.2203 4.99555 21.3529 5.00386 21.4856C5.01217 21.61 5.05373 21.7178 5.1036 21.7178C5.15902 21.7178 5.15902 21.7869 5.1036 21.9251C5.05373 22.0412 5.02048 22.149 5.02048 22.1739C5.02048 22.1987 5.18672 22.2153 5.39453 22.2153C5.72701 22.2153 5.76857 22.1904 5.76857 22.0246C5.77688 21.9251 5.72701 21.7924 5.66883 21.7427C5.61064 21.6846 5.52752 21.6598 5.48596 21.7012C5.4444 21.7344 5.43609 21.7095 5.46102 21.6515C5.49427 21.6017 5.46102 21.5354 5.39453 21.5105C5.32803 21.4856 5.26985 21.4193 5.27816 21.3529Z" fill="#00BBE4"/>
<path d="M23.5399 21.469C23.5232 21.2451 23.4983 21.2203 23.2739 21.2369C23.1409 21.2451 23.0328 21.2783 23.0328 21.3032C23.0411 21.3281 23.0411 21.4276 23.0328 21.5271C23.0162 21.6846 23.0578 21.7178 23.2822 21.7178C23.5316 21.7178 23.5565 21.7012 23.5399 21.469Z" fill="#00BBE4"/>
<path d="M25.2189 22.7129C25.2189 22.6631 25.169 22.6382 25.1109 22.6465C25.061 22.6465 24.8864 22.6714 24.7368 22.688L24.4708 22.7129V24.1225L25.1773 24.164L24.4293 24.6117L25.0111 24.62C24.5623 24.902 24.2713 25.0015 24.0801 25.0263C23.7227 25.0761 23.7227 25.0761 23.7227 24.8025C23.7227 24.5454 23.7061 24.5371 23.3653 24.5122L23.3641 24.5122C23.0245 24.4957 23.0162 24.4952 22.9913 24.164C22.9746 23.8655 22.9414 23.824 22.7003 23.7577C22.559 23.7162 22.3595 23.6747 22.2681 23.6664C22.1767 23.6581 21.9772 23.5918 21.8276 23.5172C21.6863 23.4343 21.52 23.3928 21.4785 23.4177C21.4286 23.4426 21.3039 23.4011 21.1875 23.3348C20.9964 23.2187 20.9714 23.227 20.8551 23.3928C20.7886 23.5006 20.7304 23.5421 20.7304 23.5006C20.7221 23.4508 20.6805 23.4757 20.6223 23.5421C20.5641 23.6084 20.348 23.7577 20.1319 23.8737C19.816 24.0396 19.7579 24.1059 19.841 24.1971C19.9241 24.2883 19.949 24.2801 19.9906 24.1557C20.0488 24.0064 20.0488 24.0064 20.1153 24.1474C20.1568 24.2386 20.3148 24.3713 20.4561 24.4625C20.6556 24.5786 20.7387 24.5952 20.7553 24.5122C20.7719 24.4459 20.8634 24.4708 21.0712 24.5952C21.2291 24.6947 21.4037 24.7859 21.4535 24.7859C21.5117 24.7859 21.7611 24.96 21.9938 25.1673C22.3679 25.4907 22.451 25.5239 22.5175 25.4161C22.5673 25.3497 22.6505 25.2917 22.7003 25.2834C22.7585 25.2834 22.8416 25.2171 22.8832 25.1341C22.9248 25.0595 23.0411 24.9932 23.1326 24.9932C23.2406 24.9932 23.5482 25.2419 23.9388 25.6565L24.5789 26.3199C24.6869 25.8721 24.8282 25.6234 24.9695 25.4907C25.2189 25.2419 25.2189 25.2419 25.2189 24.2883V23.3348C25.7093 23.7825 25.6595 23.7245 25.4101 23.5006C25.169 23.2684 24.9779 23.0611 24.9695 23.0197C24.9695 22.9865 25.0028 22.9782 25.0527 23.0031C25.1025 23.028 25.1524 22.9865 25.1773 22.9202C25.2023 22.8538 25.2189 22.7543 25.2189 22.7129Z" fill="#00BBE4"/>
<path d="M3.35806 22.7958C3.29156 22.746 3.20844 22.7129 3.18351 22.7129C3.15026 22.7129 3.15026 22.7958 3.18351 22.8953C3.20844 22.9948 3.34144 23.1523 3.46612 23.2435C3.59911 23.3431 3.75704 23.5172 3.82354 23.6416C3.89004 23.7742 4.01472 23.9069 4.10615 23.9567C4.26408 24.0396 4.27239 24.0147 4.25577 23.4426L4.23083 22.8455C3.69886 22.7377 3.54924 22.746 3.5243 22.7875C3.49937 22.8372 3.43287 22.8372 3.35806 22.7958Z" fill="#00BBE4"/>
<path d="M7.48087 23.4177C7.41437 23.3265 7.27306 23.2435 7.16501 23.2353C7.05695 23.227 6.86577 23.2767 6.73278 23.3431C6.55822 23.426 6.49173 23.5172 6.50004 23.6499C6.51666 23.7908 6.44185 23.8655 6.14262 23.9732C5.81013 24.1059 5.76857 24.1474 5.76857 24.3879C5.76857 24.5371 5.72701 24.7693 5.66883 24.9103C5.59402 25.1176 5.60233 25.1839 5.73532 25.3497C5.81844 25.4492 5.94313 25.5322 6.00131 25.5322C6.05118 25.5322 6.10106 25.5653 6.10106 25.6151C6.10106 25.6565 6.17587 25.7312 6.2673 25.7809C6.35873 25.8224 6.42523 25.839 6.41692 25.7975C6.4086 25.7643 6.45848 25.6483 6.53329 25.5322C6.60809 25.4161 6.87408 25.1839 7.11513 25.0181C7.35618 24.8522 7.65542 24.6698 7.78841 24.6283C7.9131 24.5786 8.01284 24.4791 8.01284 24.4127C8.01284 24.3464 8.09596 24.2303 8.20402 24.164C8.30377 24.0976 8.41182 24.0645 8.45338 24.081C8.48663 24.1059 8.51157 24.1142 8.51157 24.0976C8.51988 24.0893 8.37026 23.9815 8.17908 23.8489C7.99622 23.7245 7.8466 23.6499 7.8466 23.683C7.8466 23.7245 7.79673 23.6747 7.72192 23.5835C7.65542 23.4923 7.60555 23.4508 7.59724 23.5006C7.59724 23.5421 7.54736 23.5089 7.48087 23.4177Z" fill="#00BBE4"/>
<path d="M27.5297 25.5322C27.1307 25.1259 26.7733 24.7859 26.74 24.7859C26.7068 24.7859 27.0143 25.1176 27.4216 25.5322C27.8289 25.9468 28.1863 26.2785 28.2113 26.2785C28.2362 26.2785 27.9287 25.9468 27.5297 25.5322Z" fill="#00BBE4"/>
<path d="M25.7426 27.3979C25.1857 26.8257 24.6952 26.3614 24.662 26.3614C24.6287 26.3614 25.061 26.8257 25.6345 27.3979C26.208 27.97 26.6902 28.4344 26.7151 28.4344C26.74 28.4344 26.2995 27.97 25.7426 27.3979Z" fill="#00BBE4"/>
<path d="M26.2413 19.3214C25.726 19.1307 25.4101 19.0643 25.0111 19.0643C24.5207 19.0643 24.4625 19.0809 24.396 19.255C24.3545 19.3546 24.2132 19.6282 24.0719 19.8521C23.9306 20.0843 23.8059 20.2999 23.8059 20.3496C23.8059 20.3994 23.9472 20.474 24.1134 20.532C24.2963 20.5818 24.4459 20.5984 24.4708 20.5486C24.4958 20.5072 24.6537 20.5735 24.82 20.6813C24.9945 20.7974 25.1857 20.8886 25.2356 20.8886C25.2937 20.8886 25.4849 20.9798 25.6512 21.0959C25.8257 21.212 25.967 21.2783 25.967 21.2452C25.967 21.2037 26.0169 21.2452 26.0751 21.3281C26.1665 21.4607 26.1831 21.4607 26.3078 21.2866C26.3826 21.1788 26.5987 20.7891 26.7899 20.4159C27.0476 19.8852 27.1058 19.7111 27.0227 19.6531C26.9728 19.6116 26.6154 19.4624 26.2413 19.3214Z" fill="#00C5E1"/>
<path d="M3.98981 19.338C3.95656 19.2053 3.88175 19.1473 3.74876 19.1555H3.75707C3.64901 19.1638 3.39965 19.197 3.19185 19.2302C2.98405 19.2633 2.70975 19.3297 2.56844 19.3877C2.43545 19.4458 2.16946 19.5121 1.98659 19.537C1.80373 19.5536 1.58761 19.6116 1.5128 19.6531C1.42968 19.6945 1.34656 19.7277 1.32162 19.7277C1.29669 19.7277 1.28006 19.6365 1.28006 19.5204C1.28006 19.4043 1.24681 19.3131 1.19694 19.3131C1.15538 19.3131 1.13876 19.396 1.16369 19.4955C1.18863 19.6033 1.32994 19.9433 1.47955 20.2667C1.62917 20.5901 1.87854 21.0627 2.03647 21.3198C2.2692 21.7095 2.34401 21.7758 2.42713 21.6929C2.48532 21.6432 2.69312 21.552 2.8843 21.4939C3.07548 21.4442 3.46615 21.3115 3.75707 21.2037C4.03968 21.0959 4.27242 20.9632 4.27242 20.9135C4.27242 20.8554 4.38879 20.7891 4.52179 20.7642C4.66309 20.7393 4.77115 20.7062 4.77115 20.6813C4.77115 20.6564 4.60491 20.3911 4.40542 20.0843C4.20593 19.7692 4.02306 19.4375 3.98981 19.338Z" fill="#00C5E1"/>
<path d="M23.7227 21.013C23.7227 20.8637 23.6812 20.8057 23.5648 20.8057C23.4817 20.8057 23.3487 20.8969 23.2739 21.013C23.1409 21.212 23.1492 21.2203 23.3487 21.2203C23.5232 21.2203 23.5565 21.2617 23.5565 21.469C23.5565 21.7012 23.5316 21.7178 23.2656 21.7178C23.0411 21.7178 22.9746 21.6846 22.9746 21.5768C22.9746 21.4524 22.958 21.4442 22.8915 21.552C22.8416 21.6349 22.8416 21.6846 22.8915 21.7012C22.9414 21.7095 22.9746 21.8339 22.9746 21.9666C22.9746 22.207 22.9913 22.2153 23.3487 22.2153C23.7061 22.2153 23.7227 22.2236 23.7227 22.4641C23.7227 22.5968 23.6812 22.7128 23.6396 22.7128C23.5897 22.7128 23.4235 22.6548 23.2656 22.5885C23.0079 22.4807 22.9746 22.4807 22.9746 22.5885C22.9746 22.6797 22.8749 22.7128 22.6006 22.7128C22.3263 22.7128 22.2266 22.6797 22.2266 22.5885C22.2266 22.5221 22.1767 22.4475 22.1185 22.4392C22.0686 22.4226 21.8026 22.5968 21.545 22.8289C21.0961 23.227 21.0795 23.2601 21.2291 23.3596C21.3205 23.4094 21.4286 23.4426 21.4785 23.4177C21.52 23.3928 21.6863 23.4343 21.8276 23.5172C21.9772 23.5918 22.1767 23.6581 22.2681 23.6664C22.3595 23.6747 22.559 23.7162 22.7003 23.7577C22.9414 23.824 22.9746 23.8654 22.9913 24.164C23.0162 24.4952 23.0245 24.4956 23.3641 24.5122L23.3653 24.5122C23.7061 24.5371 23.7227 24.5454 23.7227 24.8025C23.7227 25.0761 23.7227 25.0761 24.0802 25.0263C24.2713 25.0015 24.5623 24.902 24.7202 24.8025L25.0111 24.62L24.4293 24.6117L25.1774 24.164L24.4708 24.1225V22.7543C25.061 22.6631 25.194 22.6714 25.2272 22.7377C25.2688 22.8124 25.302 22.8041 25.3436 22.7128C25.3768 22.6465 25.3519 22.5055 25.2937 22.3977C25.2189 22.2817 25.0942 22.207 24.9695 22.207C24.8532 22.207 24.6952 22.1656 24.6204 22.1075C24.5373 22.0495 24.4791 21.95 24.4791 21.8836C24.4708 21.8173 24.3545 21.6349 24.2048 21.4939C24.0552 21.3447 23.8807 21.2203 23.8225 21.2203C23.7726 21.2203 23.7227 21.1291 23.7227 21.013Z" fill="#00BEE3"/>
<path d="M4.64644 21.2203H4.27239V21.552C4.27239 21.8256 4.23914 21.8919 4.08121 21.9251C3.98147 21.95 3.81523 21.9666 3.70717 21.9666C3.54924 21.9666 3.5243 22.008 3.5243 22.2568C3.5243 22.4558 3.48274 22.547 3.39962 22.547C3.33313 22.547 3.18351 22.5138 3.06714 22.4641C2.87596 22.3895 2.86765 22.3977 2.91752 22.5553C2.95908 22.6548 3.03389 22.7792 3.10039 22.8289C3.19182 22.8953 3.20844 22.8953 3.16688 22.8206C3.13363 22.7626 3.13363 22.7128 3.16688 22.7128C3.20844 22.7128 3.29156 22.746 3.35806 22.7958C3.43287 22.8372 3.49937 22.8372 3.5243 22.7875C3.54924 22.746 3.69886 22.7377 3.89835 22.7792L4.23083 22.8455C4.26408 23.8986 4.24746 24.023 4.16434 23.9815C4.11446 23.9567 4.15602 24.0313 4.27239 24.1557C4.38876 24.2718 4.50513 24.3713 4.53838 24.3713C4.57994 24.3713 4.81268 24.5869 5.07867 24.8522L5.54415 25.3249C5.7187 24.8107 5.76857 24.5371 5.76857 24.3961C5.76857 24.1474 5.81013 24.1059 6.14262 23.9815C6.43354 23.8654 6.51666 23.7908 6.51666 23.6499C6.51666 23.5172 6.59978 23.4177 6.78265 23.3265C6.93227 23.2601 7.11513 23.2187 7.18163 23.2518C7.25644 23.285 7.24813 23.2435 7.14007 23.1275C7.04864 23.0362 6.94889 22.9533 6.90733 22.9616C6.87408 22.9616 6.70784 22.8124 6.53329 22.6299C6.36705 22.4392 6.17587 22.2899 6.11768 22.2982C6.06781 22.2982 6.01794 22.2651 6.01794 22.2153C6.01794 22.1656 5.97638 22.149 5.93482 22.1739C5.88494 22.1987 5.86832 22.1573 5.89325 22.0909C5.91819 22.0246 5.89325 21.95 5.85169 21.9251C5.80182 21.9002 5.76857 21.9583 5.76857 22.0495C5.76857 22.1904 5.71039 22.2153 5.39453 22.2153C5.18673 22.2153 5.02048 22.1987 5.02048 22.1739C5.02048 22.149 5.05373 22.0412 5.1036 21.9251C5.15902 21.7869 5.15902 21.7178 5.1036 21.7178C5.05373 21.7178 5.02048 21.6017 5.02048 21.469C5.02048 21.2286 5.00386 21.2203 4.64644 21.2203Z" fill="#00BEE3"/>
<path d="M25.6263 5.86329C25.4933 5.68915 25.352 5.54819 25.3021 5.54819C25.2522 5.54819 25.219 5.61452 25.219 5.68915C25.219 5.79695 25.1026 5.87987 24.8449 5.96279C24.6371 6.02913 24.4709 6.12034 24.4709 6.17009C24.4709 6.21985 24.3296 6.30277 24.1633 6.3691C23.9888 6.43544 23.7311 6.50178 23.5981 6.51836C23.4651 6.53495 23.2656 6.56812 23.1576 6.5847C23.0578 6.60958 22.9747 6.59299 22.9747 6.54324C22.9747 6.49349 22.9415 6.46032 22.8916 6.46032C22.8417 6.46032 22.8916 6.5847 22.9913 6.74225C23.0994 6.8998 23.4236 7.37245 23.7145 7.79535C24.18 8.48359 24.2631 8.5748 24.4626 8.54993C24.5789 8.53334 24.9613 8.41725 25.3021 8.30116C25.6429 8.18507 25.9588 8.04411 26.0086 7.98606C26.0585 7.92802 26.2331 7.86168 26.3993 7.83681C26.6487 7.79535 26.7152 7.81193 26.7152 7.91144C26.7152 7.97777 26.7484 8.03582 26.7983 8.03582C26.8482 8.03582 26.8232 7.90314 26.7484 7.72901C26.6819 7.55487 26.4492 7.13198 26.2414 6.792C26.0336 6.45203 25.7593 6.02913 25.6263 5.86329Z" fill="#00DFD6"/>
<path d="M3.48281 5.92962C3.3415 5.92133 3.11708 5.87987 2.98408 5.85499C2.74303 5.79695 2.70978 5.82183 2.38561 6.31106C2.20275 6.60128 1.92845 7.04906 1.78714 7.30611C1.64583 7.57146 1.5544 7.82851 1.58765 7.87827C1.62921 7.93631 1.7622 7.9529 1.90351 7.92802C2.04482 7.90314 2.36068 7.92802 2.61004 7.98606C2.8594 8.04411 3.30826 8.19337 3.60749 8.30946C3.90673 8.42555 4.14778 8.51676 4.14778 8.50847C4.14778 8.50017 4.37221 8.1602 4.64651 7.76218C4.9208 7.35586 5.1951 6.95784 5.24498 6.86663C5.34472 6.72567 5.31147 6.6842 4.99561 6.48519C4.80444 6.36081 4.4387 6.18668 4.18934 6.10376C3.93998 6.01254 3.62412 5.93792 3.48281 5.92962Z" fill="#00DFD6"/>
<path d="M15.9675 0.116882C15.4355 0.0505448 14.5711 -0.00749993 14.064 0.00079217H14.0557C13.5487 0.00908427 12.7341 0.0588369 12.252 0.125174C11.7699 0.19151 11.0218 0.340768 10.5896 0.456858C10.1574 0.581239 9.51732 0.780249 9.17652 0.904631C8.83573 1.02901 8.27882 1.26948 7.94633 1.43533C7.62216 1.60117 7.0985 1.89139 6.78264 2.07382C6.47509 2.26453 6.0013 2.58793 5.727 2.79523L5.22827 3.16837C5.61063 3.40055 5.73531 3.43372 5.74362 3.39226C5.76025 3.34251 5.91818 3.38397 6.10104 3.47518C6.28391 3.56639 6.46678 3.62444 6.51665 3.59956C6.56652 3.57469 6.74939 3.64932 6.93225 3.7654C7.11512 3.88149 7.27305 3.95612 7.28136 3.93125C7.29799 3.90637 7.39773 3.98929 7.5141 4.11367C7.63047 4.23805 7.74684 4.4039 7.77178 4.47023C7.80503 4.57803 7.8549 4.56145 8.0627 4.41219C8.19569 4.31268 8.61961 4.0805 9.01028 3.88979C9.40095 3.69078 10.016 3.42543 10.3818 3.29275C10.7475 3.16008 11.4208 2.96936 11.878 2.87815C12.5429 2.72889 12.9918 2.69572 14.1638 2.69572C15.3358 2.69572 15.7846 2.72889 16.4496 2.87815C16.9068 2.96936 17.5801 3.16008 17.9458 3.29275C18.3115 3.42543 18.9266 3.69078 19.3173 3.88979C19.708 4.0805 20.0571 4.26293 20.1069 4.30439C20.1568 4.34585 20.2898 4.32927 20.4394 4.25464C20.5724 4.1883 20.6971 4.13855 20.7054 4.13855C20.722 4.13855 20.7304 4.19659 20.7304 4.26293C20.7304 4.35414 20.8966 4.30439 21.3704 4.05563C21.7278 3.8732 22.0686 3.72394 22.1185 3.72394C22.1767 3.72394 22.2265 3.65761 22.2265 3.57469C22.221 3.48071 22.3512 3.3812 22.6172 3.27617L23.0162 3.11862C22.6338 2.81181 22.2764 2.55476 21.9772 2.35575C21.6779 2.15674 21.0795 1.80847 20.6472 1.57629C20.215 1.3524 19.5583 1.05389 19.1926 0.921215C18.8269 0.780249 18.1702 0.581239 17.738 0.456858C17.3058 0.340768 16.5078 0.19151 15.9675 0.116882Z" fill="#00E9D2"/>
<path d="M30.7382 28.849C30.7396 28.8488 30.7413 28.8488 30.7432 28.849H30.7465C30.7455 28.849 30.7445 28.849 30.7435 28.849C30.8074 28.858 31.1141 29.1333 31.4364 29.4709C31.8936 29.9436 32.0432 30.1674 32.0848 30.4079C32.1097 30.5738 32.1097 30.8391 32.0848 30.9801C32.0598 31.1293 31.9352 31.3698 31.8105 31.519C31.6775 31.66 31.4531 31.8259 31.3117 31.8922C31.1621 31.9502 30.9211 32 30.7881 32C30.6551 32 30.3974 31.9254 30.2312 31.8424C30.0566 31.7512 29.6161 31.3781 29.2503 31.0132C28.8514 30.6152 28.602 30.3084 28.6352 30.2421C28.6602 30.184 28.8098 30.0679 28.9677 29.9933C29.1257 29.9187 29.3667 29.8358 29.4997 29.8192C29.641 29.8026 29.907 29.7114 30.1065 29.6119C30.3808 29.4709 30.4556 29.388 30.439 29.2387C30.4307 29.1309 30.4722 29.0065 30.5387 28.9485C30.6039 28.8916 30.6931 28.8506 30.7435 28.849C30.7434 28.849 30.7433 28.849 30.7432 28.849H30.7382Z" fill="#00AFE8"/>
<path d="M28.1864 29.7611C28.203 29.6948 28.1947 29.5787 28.1781 29.5041C28.1531 29.4129 28.0783 29.3963 27.9453 29.4294L27.7458 29.4792C28.1116 29.844 28.1698 29.8606 28.1864 29.7611Z" fill="#00AFE8"/>
<path d="M26.607 24.7444C26.5572 24.6698 26.4574 24.6117 26.4075 24.62H26.3992C26.3494 24.62 26.2995 24.6532 26.2995 24.7029C26.2995 24.7527 26.3826 24.8688 26.4823 24.9766C26.6486 25.1424 26.6735 25.1424 26.6902 25.018C26.7068 24.9351 26.6652 24.8107 26.607 24.7444Z" fill="#00B5E6"/>
<path d="M28.311 26.3862C27.5962 25.7229 27.3385 25.5322 27.1556 25.5322C26.9478 25.5322 26.9229 25.557 26.9478 25.7809C26.9645 25.955 26.9395 26.0297 26.8481 26.0297C26.7483 26.0297 26.7234 26.1458 26.7234 26.6101C26.7234 27.0828 26.6985 27.2072 26.5738 27.2652C26.499 27.3067 26.366 27.4559 26.2829 27.5969C26.1748 27.7959 26.1665 27.8705 26.2496 27.912C26.3078 27.9534 26.5073 28.1773 26.7068 28.4095L27.0559 28.849C27.4133 28.5256 27.4715 28.3929 27.4715 28.1856C27.4715 27.9369 27.5131 27.8705 27.804 27.7047C27.9868 27.6052 28.1531 27.5223 28.178 27.5223C28.203 27.5223 28.2196 27.5886 28.2196 27.6632C28.2196 27.7876 28.2861 27.8125 28.5936 27.7876C28.951 27.771 28.9677 27.7627 28.9677 27.5223C28.9677 27.3647 29.0092 27.2652 29.1007 27.2486C29.1755 27.2403 28.8762 26.9086 28.311 26.3862Z" fill="#00B5E6"/>
<path d="M13.9809 26.693L13.956 26.5272L13.7149 26.693C13.5736 26.7843 13.4157 26.8589 13.3658 26.8589C13.3077 26.8589 13.2578 26.8008 13.2578 26.7345C13.2578 26.635 13.183 26.6516 12.8837 26.8174C12.5263 27.0164 12.5097 27.0164 12.5097 26.8589C12.5097 26.7013 12.4931 26.7013 12.1356 26.9003C11.8364 27.0662 11.7616 27.0828 11.7616 26.9833C11.7616 26.8838 11.6535 26.9169 11.2878 27.1159C11.0218 27.2486 10.7392 27.431 10.6644 27.5057C10.5813 27.5803 10.5397 27.6715 10.5563 27.7047C10.5813 27.7461 10.6561 27.7544 10.7226 27.7296C10.7891 27.7047 10.8639 27.7213 10.8888 27.771C10.9138 27.8208 10.9886 27.8374 11.0551 27.8125C11.1216 27.7876 11.1964 27.8042 11.2213 27.8539C11.2463 27.9037 11.346 27.9369 11.4541 27.9369C11.5538 27.9369 11.7699 27.9534 11.9278 27.9783C12.0858 28.0032 12.4099 28.0447 12.6344 28.0778C12.8588 28.111 13.5903 28.1359 14.2552 28.1276C14.9202 28.1276 15.6267 28.1027 15.8345 28.0778C16.0423 28.0447 16.3083 28.0198 16.4413 28.0198C16.566 28.0198 16.6824 27.9866 16.7073 27.9369C16.7322 27.8871 16.8154 27.8788 16.8985 27.9037C16.9733 27.9286 17.0647 27.912 17.1063 27.8622C17.1395 27.8125 17.2227 27.7876 17.2892 27.8125C17.3557 27.8374 17.4305 27.8208 17.4554 27.771C17.4803 27.7213 17.5468 27.7047 17.605 27.7296C17.6549 27.7544 17.7796 27.7213 17.871 27.6466C18.0372 27.5223 18.0289 27.5223 17.7713 27.2735C17.5551 27.0745 17.4471 27.033 17.2476 27.0662C17.0647 27.0994 16.9982 27.0745 16.9982 26.9833C16.9982 26.8838 16.9234 26.8672 16.6242 26.9003C16.325 26.9335 16.2501 26.9169 16.2501 26.8174C16.2501 26.7345 16.192 26.7096 16.0673 26.7345C15.9592 26.7594 15.793 26.7926 15.6932 26.8174C15.5602 26.8423 15.5021 26.8174 15.5021 26.7345C15.5021 26.6682 15.4688 26.6101 15.4189 26.6101C15.3691 26.6101 15.2028 26.6682 15.0449 26.7345C14.7706 26.8506 14.754 26.8506 14.754 26.693C14.754 26.6018 14.729 26.5272 14.6958 26.5272C14.6542 26.5272 14.5046 26.6018 14.3633 26.693C14.2137 26.7843 14.0724 26.8589 14.0474 26.8589C14.0225 26.8589 13.9976 26.7843 13.9809 26.693Z" fill="#00B5E6"/>
<path d="M24.2963 20.6067C24.2298 20.5652 24.0718 20.4989 23.9472 20.4657C23.756 20.4159 23.6895 20.4408 23.5897 20.5818C23.4817 20.7476 23.4817 20.7642 23.5981 20.7891C23.6729 20.7974 23.7227 20.8886 23.7227 21.013C23.7227 21.1291 23.7726 21.2203 23.8308 21.2203C23.8807 21.2203 24.0552 21.3364 24.1965 21.4856C24.3461 21.6349 24.4708 21.8173 24.4708 21.8836C24.4791 21.95 24.5373 22.0495 24.6204 22.1075C24.6953 22.1656 24.8532 22.207 24.9696 22.2153C25.0859 22.2153 25.2272 22.29 25.2854 22.3812C25.3353 22.4724 25.4101 22.5304 25.4517 22.5138C25.4849 22.4973 25.6511 22.2734 25.8257 22.0163C25.9919 21.7593 26.1249 21.4856 26.1083 21.411C26.1 21.3281 26.0501 21.2617 26.0086 21.2617C25.9587 21.2617 25.7925 21.1788 25.6345 21.0793C25.4766 20.9798 25.2937 20.8886 25.2439 20.8886C25.1857 20.8886 24.9945 20.7974 24.8283 20.6813C24.5955 20.532 24.4958 20.5072 24.4625 20.5818C24.421 20.6481 24.3711 20.6564 24.2963 20.6067Z" fill="#00C0E2"/>
<path d="M4.97893 20.9135C4.91244 20.8057 4.78775 20.731 4.71295 20.731C4.62982 20.7393 4.48852 20.7559 4.39708 20.7808C4.30565 20.7974 4.23915 20.8637 4.25578 20.9135C4.26409 20.9715 4.03966 21.0959 3.75705 21.2037C3.46613 21.3115 3.07546 21.4442 2.88428 21.4939C2.6931 21.552 2.4853 21.6432 2.42711 21.6929C2.33568 21.7841 2.36062 21.8588 2.56842 22.1407C2.78454 22.4309 2.86766 22.489 3.1752 22.5138L3.52431 22.547C3.52431 22.008 3.54925 21.9666 3.71549 21.9666C3.81524 21.9666 3.98148 21.95 4.08954 21.9251C4.23915 21.8919 4.2724 21.8256 4.2724 21.552V21.2203C4.85425 21.2203 5.03712 21.1954 5.06205 21.1622C5.07868 21.1208 5.04543 21.013 4.97893 20.9135Z" fill="#00C0E2"/>
<path d="M22.85 21.6349C22.8666 21.5934 22.8749 21.552 22.8583 21.552C22.85 21.552 22.7585 21.6349 22.6588 21.7427C22.5507 21.8422 22.4925 21.9831 22.5175 22.0744C22.5424 22.149 22.5258 22.2153 22.4759 22.2153C22.4261 22.2153 22.4177 22.1656 22.451 22.1158C22.4759 22.0578 22.4011 22.0992 22.2764 22.2153C22.1518 22.3314 22.0853 22.4309 22.1351 22.4475C22.185 22.4558 22.2266 22.5221 22.2266 22.5885C22.2266 22.6797 22.3263 22.7128 22.6006 22.7128C22.8749 22.7128 22.9746 22.6797 22.9746 22.5885C22.9746 22.4807 23.0079 22.4807 23.2656 22.5885C23.4235 22.6548 23.5897 22.7128 23.6396 22.7128C23.6895 22.7128 23.7227 22.6051 23.7227 22.4641C23.7227 22.2236 23.7061 22.2153 23.3487 22.2153C22.9913 22.2153 22.9746 22.207 22.9746 21.9666C22.9746 21.8339 22.9414 21.7178 22.8915 21.7178C22.8417 21.7178 22.825 21.6846 22.85 21.6349Z" fill="#00C0E2"/>
<path d="M1.52938 12.3892C1.32158 12.3229 1.0639 12.2731 0.947535 12.2814C0.831166 12.2814 0.606739 12.3063 0.448809 12.3394C0.174509 12.3892 0.157885 12.4141 0.0997 12.7623C0.0747637 12.9696 0.0415152 13.3428 0.0415152 13.5915L0.0332031 14.0476C0.515306 14.2052 0.797917 14.2549 0.964159 14.2549C1.13871 14.2549 1.28002 14.2217 1.28002 14.172C1.28002 14.1222 1.34652 14.0725 1.42133 14.0476C1.50445 14.0227 1.679 13.9896 1.82031 13.973C1.96161 13.9564 2.20266 13.9896 2.36891 14.0393L2.66814 14.1305C2.75958 12.9033 2.74295 12.7872 2.62658 12.696C2.55177 12.638 2.35228 12.5716 2.19435 12.555C2.03642 12.5302 1.73719 12.4555 1.52938 12.3892Z" fill="#00D3DB"/>
<path d="M28.1697 12.4306C28.1448 12.3809 27.9785 12.3477 27.7957 12.3477C27.6128 12.3477 27.4632 12.3726 27.4632 12.4141C27.4632 12.4472 27.1972 12.5053 26.8647 12.5467C26.5322 12.5799 26.1249 12.6297 25.967 12.6462C25.8091 12.6628 25.6511 12.7043 25.6262 12.7457C25.5929 12.7789 25.5846 13.0857 25.6096 13.4257L25.6511 14.0476C26.0584 14.0227 26.632 13.9979 27.1889 13.973C28.1198 13.9315 28.2113 13.9398 28.2528 14.0725C28.2694 14.1471 28.2694 13.832 28.2528 13.3677C28.2279 12.895 28.1946 12.4804 28.1697 12.4306Z" fill="#00D3DB"/>
<path d="M30.015 28.0364C29.5994 27.6218 29.1838 27.2735 29.109 27.2735H29.1007C29.001 27.2735 28.9594 27.3398 28.9594 27.5223C28.9594 27.7627 28.9428 27.771 28.5854 27.7959C28.2778 27.8125 28.2113 27.7876 28.2113 27.6715C28.2113 27.5886 28.1947 27.5223 28.1698 27.5223C28.1448 27.5223 27.9786 27.6052 27.7957 27.7047C27.5048 27.8705 27.4632 27.9286 27.4632 28.2022C27.4632 28.4261 27.4133 28.5505 27.297 28.6168C27.2055 28.6749 27.1307 28.7578 27.1307 28.8075C27.1307 28.8573 27.3053 29.0563 27.5131 29.2636C27.7292 29.4709 27.8788 29.587 27.8456 29.5372C27.8123 29.4626 27.8705 29.4212 28.0035 29.4129C28.1781 29.388 28.2113 29.4212 28.2113 29.6202C28.2113 29.7694 28.1781 29.8275 28.1033 29.786C28.0534 29.7611 28.1282 29.8606 28.2778 30.0182L28.5604 30.3001C28.9012 30.0099 29.1173 29.9021 29.2503 29.8689C29.3833 29.844 29.5579 29.8109 29.6244 29.8026C29.6909 29.7943 29.907 29.7114 30.0982 29.6119C30.3725 29.4709 30.4556 29.3797 30.4556 29.2221C30.4556 29.1061 30.5304 28.9734 30.6218 28.9153C30.7798 28.8158 30.7382 28.7578 30.015 28.0364Z" fill="#00B2E7"/>
<path d="M26.7151 7.91147C26.7151 7.84513 26.6486 7.79538 26.5738 7.79538H26.5655C26.4907 7.80367 26.3494 7.82026 26.258 7.84513C26.1665 7.87001 26.0585 7.92805 26.0086 7.9861C25.9587 8.04414 25.6346 8.1934 25.2771 8.30949C24.928 8.43387 24.5623 8.53338 24.4709 8.53338C24.3794 8.53338 24.3046 8.58313 24.3046 8.64117C24.3046 8.69093 24.4542 9.06407 24.6371 9.47038C24.82 9.8684 24.9696 10.225 24.9696 10.2747C24.9696 10.3245 25.0943 10.3576 25.2356 10.3576C25.3852 10.3576 25.7676 10.2913 26.0917 10.2167C26.4159 10.142 26.6902 10.0508 26.7151 10.0177C26.7401 9.99279 26.9063 9.94303 27.0892 9.90986C27.3385 9.8684 27.4383 9.81036 27.4798 9.66939C27.5131 9.5616 27.4549 9.29625 27.3385 8.98944C27.2305 8.7158 27.0975 8.38412 27.031 8.25974C26.9728 8.13536 26.8731 8.03585 26.8149 8.03585C26.765 8.03585 26.7151 7.97781 26.7151 7.91147Z" fill="#00DBD8"/>
<path d="M2.61833 7.9861C2.4604 7.95293 2.12791 7.91976 1.88686 7.91976C1.45463 7.91147 1.43801 7.91147 1.31333 8.20169C1.24683 8.35924 1.08059 8.78214 0.947594 9.1387C0.8146 9.48697 0.706543 9.78548 0.706543 9.80207C0.706543 9.81036 0.955906 9.84353 1.26345 9.8767C1.57931 9.91816 1.90349 9.95962 1.99492 9.98449C2.08635 10.0094 2.34403 10.0757 2.57677 10.142C2.80119 10.2084 3.07549 10.2913 3.17524 10.3162C3.34148 10.3493 3.38304 10.3079 3.46616 10.0508C3.51604 9.8767 3.68228 9.47038 3.8319 9.15528C3.98151 8.84018 4.08957 8.54996 4.07295 8.51679C4.04801 8.47533 3.78202 8.35924 3.46616 8.25145C3.15862 8.13536 2.77626 8.01927 2.61833 7.9861Z" fill="#00DBD8"/>
<path d="M27.8372 10.5235C27.7624 10.2249 27.6461 9.89326 27.5796 9.77717C27.4964 9.61962 27.4715 9.60304 27.4632 9.71083C27.4632 9.81863 27.3718 9.87668 27.1141 9.90984C26.9146 9.94301 26.74 9.99276 26.7151 10.0176C26.6902 10.0508 26.4159 10.142 26.0917 10.2167C25.7758 10.2913 25.4101 10.3576 25.2854 10.3576C25.1524 10.3576 25.0527 10.3742 25.0527 10.3991C25.0527 10.424 25.1192 10.6644 25.2023 10.9381C25.2937 11.2449 25.3769 11.4024 25.4267 11.361C25.4766 11.3195 25.6013 11.278 25.7176 11.2615C25.834 11.2532 26.0003 11.278 26.0917 11.3112C26.1831 11.3444 26.3577 11.3527 26.4907 11.3195C26.6154 11.2946 26.7151 11.3029 26.7151 11.3527C26.7151 11.4024 26.8564 11.419 27.0725 11.3858C27.2637 11.361 27.5629 11.3361 27.7292 11.3278C27.9619 11.3112 28.0367 11.278 28.0035 11.1868L27.8372 10.5235Z" fill="#00D8D9"/>
<path d="M1.94501 9.96789C1.87852 9.9596 1.57097 9.91814 1.27173 9.89326C0.839504 9.8518 0.70651 9.86009 0.673262 9.9513C0.640013 10.0176 0.540268 10.3493 0.448835 10.6893C0.357402 11.0293 0.282593 11.3278 0.282593 11.3527C0.282593 11.3775 0.490396 11.3693 0.739759 11.3278C1.07224 11.2863 1.27173 11.3029 1.48785 11.3941C1.64578 11.4605 1.92008 11.5185 2.09463 11.5185C2.26087 11.5102 2.53517 11.5019 2.6931 11.4936C2.97572 11.4771 2.99234 11.4605 3.12533 10.9795C3.20846 10.7059 3.27495 10.4654 3.27495 10.4405C3.27495 10.4157 3.17521 10.3576 3.05053 10.3079C2.92584 10.2498 2.65154 10.1586 2.44374 10.1006C2.23594 10.0425 2.01151 9.98447 1.94501 9.96789Z" fill="#00D8D9"/>
<path d="M1.31333 17.8951C1.30502 17.8039 1.25514 17.7459 1.18865 17.7459C1.12215 17.7542 0.972533 17.779 0.839539 17.7873C0.689921 17.8122 0.615112 17.8703 0.615112 17.9615C0.615112 18.0444 0.714858 18.3927 0.839539 18.7492C1.01409 19.2219 1.10553 19.3711 1.18865 19.3297C1.28008 19.2799 1.30502 19.3297 1.27177 19.5287C1.23852 19.794 1.23852 19.794 1.46295 19.6779C1.59594 19.6116 1.82037 19.5535 1.96167 19.537C2.11129 19.5204 2.41884 19.4458 2.65158 19.3711C2.87601 19.2965 3.24174 19.2136 3.45785 19.1887C3.73215 19.1638 3.84852 19.1141 3.81527 19.0394C3.79865 18.9897 3.67397 18.6912 3.54929 18.3844C3.34148 17.8951 3.2833 17.8205 3.06718 17.7956C2.92588 17.7707 2.80951 17.779 2.79289 17.8122C2.78457 17.8371 2.65158 17.8537 2.50196 17.8371C2.36066 17.8205 2.02817 17.862 1.77881 17.9283C1.34658 18.0444 1.32164 18.0444 1.31333 17.8951Z" fill="#00C8DF"/>
<path d="M26.4242 17.8122C26.2912 17.7707 25.9255 17.7376 25.6096 17.7376C25.1525 17.7376 25.0361 17.7625 24.9945 17.8785C24.9696 17.9615 24.8366 18.26 24.7036 18.5419L24.4709 19.0643C25.4101 19.0643 25.7343 19.1307 26.233 19.3214C26.6154 19.4623 26.9562 19.6116 27.0061 19.6531C27.0559 19.6945 27.1307 19.6365 27.2056 19.4955C27.2637 19.3711 27.4134 19.0229 27.5297 18.716C27.6461 18.4092 27.7126 18.1439 27.6627 18.119C27.6212 18.1024 27.3801 18.0444 27.1307 17.9863C26.8814 17.9283 26.5572 17.8454 26.4242 17.8122Z" fill="#00C8DF"/>
<path d="M26.4326 11.3361C26.2663 11.3693 26.1001 11.361 26.0253 11.3112C25.9588 11.2615 25.8175 11.2449 25.7094 11.2532C25.6014 11.2697 25.4517 11.3195 25.3852 11.361C25.2938 11.4273 25.2855 11.4936 25.3603 11.7092C25.4102 11.8585 25.4767 12.1487 25.5016 12.3643C25.5265 12.5882 25.5847 12.7457 25.6346 12.7209C25.6845 12.696 25.8424 12.6628 25.992 12.6462C26.1333 12.6297 26.5323 12.5799 26.8648 12.5467C27.1973 12.5053 27.4633 12.4472 27.4633 12.4141C27.4633 12.3726 27.6295 12.356 27.829 12.3726L28.1947 12.3892C28.1282 11.9414 28.0867 11.7009 28.0534 11.56C27.9952 11.3361 27.962 11.3112 27.7043 11.3278C27.5464 11.3361 27.2638 11.3693 27.0726 11.3941C26.8565 11.419 26.7152 11.4024 26.7152 11.3527C26.7152 11.3029 26.6071 11.2946 26.4326 11.3361Z" fill="#00D6DA"/>
<path d="M1.44636 11.3858C1.28843 11.3195 1.11387 11.2697 1.07231 11.278C1.03075 11.2863 0.847887 11.3112 0.681645 11.3278C0.448905 11.3444 0.34916 11.4024 0.290975 11.5434C0.257727 11.6429 0.207854 11.8751 0.182918 12.0575L0.141357 12.3892C0.972568 12.2565 1.14712 12.2648 1.42973 12.3809C1.62091 12.4555 1.87028 12.5136 1.98665 12.5136C2.10302 12.5136 2.32744 12.5716 2.48537 12.6379L2.7763 12.7623C2.90098 11.958 2.94254 11.6512 2.94254 11.56C2.94254 11.4107 2.9176 11.4024 2.63499 11.4605C2.46044 11.5019 2.18614 11.5268 2.02821 11.5185C1.87028 11.5102 1.60429 11.4522 1.44636 11.3858Z" fill="#00D6DA"/>
<path d="M26.5073 16.1372C26.2829 16.0709 25.967 15.988 25.8174 15.9631C25.6345 15.9299 25.5348 15.9548 25.5099 16.0211C25.4932 16.0709 25.4018 16.4191 25.3104 16.784C25.2189 17.1489 25.1275 17.5137 25.1026 17.5966C25.061 17.721 25.1192 17.7376 25.593 17.7376C25.8922 17.7376 26.3078 17.7791 26.5323 17.8371C26.7484 17.8869 27.0975 17.9781 27.3219 18.0444L27.7126 18.1522C27.8373 17.6713 27.9204 17.2898 27.9869 16.9913C28.0534 16.6928 28.1032 16.3943 28.0949 16.3196C28.0866 16.2118 28.0451 16.2036 27.804 16.2782C27.5796 16.3528 27.5131 16.3445 27.4881 16.2699C27.4715 16.1953 27.3718 16.1787 27.1972 16.2118C27.0393 16.245 26.7484 16.2118 26.5073 16.1372Z" fill="#00CBDE"/>
<path d="M3.00067 16.7177C2.84274 16.104 2.79287 15.9963 2.65156 15.9963C2.56013 15.9963 2.39388 16.0543 2.27751 16.1123C2.16114 16.1787 1.90347 16.2782 1.70398 16.3445C1.41306 16.4274 1.32993 16.4274 1.305 16.3528C1.28837 16.2865 1.14707 16.245 0.947577 16.245C0.76471 16.245 0.523659 16.2782 0.40729 16.3279C0.268755 16.3832 0.21057 16.4606 0.232735 16.5601C0.257672 16.6347 0.332481 16.9581 0.407289 17.2815L0.40729 17.2815L0.548596 17.862C1.01407 17.7708 1.18032 17.7376 1.21356 17.7376C1.25512 17.7376 1.28837 17.8039 1.29669 17.8951C1.32162 18.0361 1.34656 18.0444 1.77879 17.9283C2.02815 17.862 2.36064 17.8205 2.50194 17.8371C2.65156 17.8537 2.77624 17.8371 2.77624 17.8039C2.77624 17.7625 2.90092 17.7625 3.04223 17.7956C3.2999 17.8537 3.31653 17.8454 3.25003 17.6464C3.21678 17.5386 3.10041 17.124 3.00067 16.7177Z" fill="#00CBDE"/>
<path d="M24.0386 21.8671C23.9555 21.7841 23.8558 21.7178 23.8059 21.7178C23.756 21.7178 23.7228 21.8339 23.7228 21.9666C23.7228 22.207 23.7311 22.2153 24.1218 22.207C24.4542 22.207 24.4875 22.1905 24.3545 22.1075C24.2631 22.0495 24.1218 21.9417 24.0386 21.8671Z" fill="#00BBE4"/>
</svg>
