<svg width="411" height="145" viewBox="0 0 411 145" fill="none" xmlns="http://www.w3.org/2000/svg">
<path d="M288.363 89.9092C353.125 89.9092 406.591 128.985 414.614 179.546C415.3 175.221 415.655 170.813 415.655 166.337C415.655 109.537 358.664 63.4922 288.363 63.4922C218.061 63.4922 161.071 109.537 161.071 166.337C161.071 170.813 161.426 175.221 162.112 179.546C170.136 128.984 223.601 89.9092 288.363 89.9092Z" fill="url(#paint0_radial_20_1348)"/>
<path d="M330.949 131.039C388.293 155.356 413.158 210.03 391.18 257.812C394.275 254.241 397.125 250.47 399.699 246.507C432.37 196.214 408.392 134.044 346.143 107.648C283.895 81.2522 206.947 100.625 174.277 150.918C171.703 154.881 169.481 158.918 167.601 163.005C203.788 121.248 273.605 106.723 330.949 131.039Z" fill="url(#paint1_radial_20_1348)"/>
<path d="M344.999 183.448C381.788 226.51 372.357 284.258 325.413 318.315C330.207 316.314 334.899 314.046 339.458 311.504C397.315 279.238 411.843 215.186 371.907 168.441C331.972 121.696 252.695 109.958 194.838 142.224C190.28 144.766 185.991 147.506 181.975 150.419C238.035 127.032 308.21 140.385 344.999 183.448Z" fill="url(#paint2_radial_20_1348)"/>
<path d="M327.294 235.128C335.101 287.071 293.534 334.664 232.378 347.193C237.774 347.222 243.233 346.975 248.732 346.436C318.521 339.59 368.227 288.33 359.753 231.944C351.279 175.559 287.834 135.399 218.046 142.246C212.547 142.785 207.173 143.601 201.942 144.673C265.033 145.013 319.488 183.186 327.294 235.128Z" fill="url(#paint3_radial_20_1348)"/>
<path d="M100.028 252.157C37.1483 239.635 -3.18931 191.357 3.99674 140.714C2.04951 144.78 0.399509 148.992 -0.926174 153.337C-17.7502 208.487 23.9454 264.213 92.2039 277.806C160.462 291.399 229.435 257.711 246.26 202.562C247.585 198.217 248.547 193.868 249.162 189.536C226.395 237.077 162.909 264.679 100.028 252.157Z" fill="url(#paint4_radial_20_1348)"/>
<path d="M70.8633 203.988C22.3883 169.29 14.4397 111.397 49.9323 69.2529C45.8692 72.1223 41.9855 75.232 38.3123 78.5819C-8.306 121.097 -3.43991 186.096 49.1816 223.761C101.803 261.426 182.253 257.495 228.871 214.98C232.544 211.63 235.897 208.14 238.933 204.535C191.429 238.082 119.338 238.686 70.8633 203.988Z" fill="url(#paint5_radial_20_1348)"/>
<path d="M72.745 150.386C49.7801 101.462 76.0418 47.2154 131.71 23.2249C126.462 24.24 121.234 25.5353 116.055 27.1224C50.322 47.2638 17.2441 106.645 42.1732 159.754C67.1024 212.862 140.599 239.587 206.331 219.446C211.511 217.859 216.487 216.028 221.248 213.976C159.89 225.844 95.7098 199.31 72.745 150.386Z" fill="url(#paint6_radial_20_1348)"/>
<path d="M105.243 103.63C113.049 51.6871 167.505 13.515 230.595 13.1741C225.364 12.1024 219.991 11.2865 214.492 10.7472C144.703 3.90074 81.2586 44.0601 72.7845 100.446C64.3104 156.831 114.016 208.091 183.805 214.938C189.304 215.477 194.763 215.724 200.16 215.695C139.003 203.165 97.4364 155.573 105.243 103.63Z" fill="url(#paint7_radial_20_1348)"/>
<path d="M160.911 74.4317C197.7 31.3695 267.875 18.0163 323.935 41.4033C319.92 38.4903 315.63 35.7503 311.072 33.2078C253.215 0.942096 173.938 12.68 134.003 59.4253C94.0669 106.171 108.595 170.222 166.452 202.488C171.01 205.03 175.702 207.299 180.497 209.299C133.553 175.242 124.122 117.494 160.911 74.4317Z" fill="url(#paint8_radial_20_1348)"/>
<path d="M226.998 69.4801C284.342 45.1638 354.159 59.6884 390.346 101.446C388.466 97.3588 386.244 93.3221 383.67 89.3593C350.999 39.0656 274.052 19.6928 211.803 46.089C149.554 72.4853 125.577 134.655 158.247 184.948C160.822 188.911 163.671 192.681 166.766 196.253C144.789 148.47 169.654 93.7964 226.998 69.4801Z" fill="url(#paint9_radial_20_1348)"/>
<path d="M288.363 89.9092C353.125 89.9092 406.591 128.985 414.614 179.546C415.3 175.221 415.655 170.813 415.655 166.337C415.655 109.537 358.664 63.4922 288.363 63.4922C218.061 63.4922 161.071 109.537 161.071 166.337C161.071 170.813 161.426 175.221 162.112 179.546C170.136 128.984 223.601 89.9092 288.363 89.9092Z" fill="url(#paint10_radial_20_1348)"/>
<defs>
<radialGradient id="paint0_radial_20_1348" cx="0" cy="0" r="1" gradientUnits="userSpaceOnUse" gradientTransform="translate(288.363 121.519) scale(103.347 83.4991)">
<stop stop-color="white"/>
<stop offset="0.0242" stop-color="#FAFCF8"/>
<stop offset="0.1773" stop-color="#DBECCE"/>
<stop offset="0.3338" stop-color="#C2DEAC"/>
<stop offset="0.4922" stop-color="#AFD391"/>
<stop offset="0.6532" stop-color="#A1CC7E"/>
<stop offset="0.8184" stop-color="#99C773"/>
<stop offset="0.9944" stop-color="#96C66F"/>
</radialGradient>
<radialGradient id="paint1_radial_20_1348" cx="0" cy="0" r="1" gradientUnits="userSpaceOnUse" gradientTransform="translate(290.953 176.829) scale(112.388 90.804)">
<stop stop-color="white"/>
<stop offset="0.1259" stop-color="#F0F0F1"/>
<stop offset="0.3664" stop-color="#C9CACB"/>
<stop offset="0.5225" stop-color="#ADAEB0"/>
<stop offset="0.6029" stop-color="#A3A5A7"/>
<stop offset="0.7382" stop-color="#898D90"/>
<stop offset="0.9108" stop-color="#5F6769"/>
<stop offset="1" stop-color="#465053"/>
</radialGradient>
<radialGradient id="paint2_radial_20_1348" cx="0" cy="0" r="1" gradientUnits="userSpaceOnUse" gradientTransform="translate(288.214 221.162) scale(113.459 91.6686)">
<stop stop-color="#E1E4EF"/>
<stop offset="0.5" stop-color="#CBD1E4"/>
<stop offset="1" stop-color="#B4BED8"/>
</radialGradient>
<radialGradient id="paint3_radial_20_1348" cx="0" cy="0" r="1" gradientUnits="userSpaceOnUse" gradientTransform="translate(281.318 244.34) scale(106.082 85.7088)">
<stop stop-color="white"/>
<stop offset="0.049" stop-color="#F6F0F6"/>
<stop offset="0.199" stop-color="#DEC6DD"/>
<stop offset="0.3524" stop-color="#CAA4C8"/>
<stop offset="0.5077" stop-color="#BA89B8"/>
<stop offset="0.6655" stop-color="#AF76AD"/>
<stop offset="0.8275" stop-color="#A86BA6"/>
<stop offset="1" stop-color="#A667A4"/>
</radialGradient>
<radialGradient id="paint4_radial_20_1348" cx="0" cy="0" r="1" gradientUnits="userSpaceOnUse" gradientTransform="translate(122.253 210.766) scale(108.681 87.8088)">
<stop stop-color="#CCDDF2"/>
<stop offset="0.5" stop-color="#ACCAEA"/>
<stop offset="0.5724" stop-color="#A7C8E9"/>
<stop offset="1" stop-color="#90BBE4"/>
</radialGradient>
<radialGradient id="paint5_radial_20_1348" cx="0" cy="0" r="1" gradientUnits="userSpaceOnUse" gradientTransform="translate(122.615 159.44) scale(113.995 92.1021)">
<stop stop-color="white"/>
<stop offset="0.0047" stop-color="#FDFDFE"/>
<stop offset="0.149" stop-color="#C9C8E1"/>
<stop offset="0.295" stop-color="#9B9AC8"/>
<stop offset="0.4399" stop-color="#7674B4"/>
<stop offset="0.5835" stop-color="#5A57A4"/>
<stop offset="0.7255" stop-color="#454399"/>
<stop offset="0.8652" stop-color="#393692"/>
<stop offset="1" stop-color="#353290"/>
</radialGradient>
<radialGradient id="paint6_radial_20_1348" cx="0" cy="0" r="1" gradientUnits="userSpaceOnUse" gradientTransform="translate(127.558 124.691) scale(110.792 89.5137)">
<stop offset="0.0056" stop-color="#AEB0B7"/>
<stop offset="0.3156" stop-color="#AAAAA8"/>
<stop offset="0.3539" stop-color="#A9A9A6"/>
<stop offset="0.5001" stop-color="#9A9E9E"/>
<stop offset="0.6742" stop-color="#838C92"/>
<stop offset="1" stop-color="#657076"/>
</radialGradient>
<radialGradient id="paint7_radial_20_1348" cx="0" cy="0" r="1" gradientUnits="userSpaceOnUse" gradientTransform="translate(151.219 112.842) scale(106.082 85.7088)">
<stop offset="0.0056" stop-color="#E6F3E9"/>
<stop offset="0.4494" stop-color="#C9E6D2"/>
<stop offset="1" stop-color="#ACDABB"/>
</radialGradient>
<radialGradient id="paint8_radial_20_1348" cx="0" cy="0" r="1" gradientUnits="userSpaceOnUse" gradientTransform="translate(217.697 112.146) scale(113.459 91.6686)">
<stop stop-color="white"/>
<stop offset="0.0546" stop-color="#FDE8E8"/>
<stop offset="0.1819" stop-color="#F8B6B7"/>
<stop offset="0.3125" stop-color="#F48C8D"/>
<stop offset="0.4442" stop-color="#F16A6B"/>
<stop offset="0.5775" stop-color="#EE4F50"/>
<stop offset="0.713" stop-color="#EC3C3D"/>
<stop offset="0.852" stop-color="#EB3132"/>
<stop offset="1" stop-color="#EB2D2E"/>
</radialGradient>
<radialGradient id="paint9_radial_20_1348" cx="0" cy="0" r="1" gradientUnits="userSpaceOnUse" gradientTransform="translate(266.993 115.27) scale(112.388 90.804)">
<stop stop-color="white"/>
<stop offset="0.1006" stop-color="#F5E6DD"/>
<stop offset="0.2424" stop-color="#E9C8B3"/>
<stop offset="0.3875" stop-color="#DFAE91"/>
<stop offset="0.5344" stop-color="#D89B76"/>
<stop offset="0.6837" stop-color="#D28D63"/>
<stop offset="0.8368" stop-color="#CF8558"/>
<stop offset="1" stop-color="#CE8254"/>
</radialGradient>
<radialGradient id="paint10_radial_20_1348" cx="0" cy="0" r="1" gradientUnits="userSpaceOnUse" gradientTransform="translate(288.363 121.519) scale(103.347 83.4991)">
<stop stop-color="white"/>
<stop offset="0.1006" stop-color="#F5E6DD"/>
<stop offset="0.2424" stop-color="#E9C8B3"/>
<stop offset="0.3875" stop-color="#DFAE91"/>
<stop offset="0.5344" stop-color="#D89B76"/>
<stop offset="0.6837" stop-color="#D28D63"/>
<stop offset="0.8368" stop-color="#CF8558"/>
<stop offset="1" stop-color="#CE8254"/>
</radialGradient>
</defs>
</svg>
