<svg width="419" height="899" viewBox="0 0 419 899" fill="none" xmlns="http://www.w3.org/2000/svg">
<g clip-path="url(#clip0_2_44)" filter="url(#filter0_d_2_44)">
<path d="M4 0H415V891H4V0Z" fill="url(#paint0_linear_2_44)"/>
<g filter="url(#filter1_bd_2_44)">
<rect x="4" width="411" height="891" fill="url(#paint1_linear_2_44)"/>
</g>
<g filter="url(#filter2_d_2_44)">
<path d="M110.016 158.696C107.256 158.696 105.648 157.016 105.648 153.248C105.648 149.48 107.208 147.488 110.016 147.488C112.8 147.488 114.336 149.48 114.336 153.248C114.336 157.016 112.416 158.696 110.016 158.696ZM110.016 161.552C114.912 161.552 117.624 158.72 117.624 153.248C117.624 147.776 114.912 144.536 110.016 144.536C105.12 144.536 102.36 147.776 102.36 153.176C102.36 158.552 105.12 161.552 110.016 161.552ZM109.32 142.976V140H106.2V142.976H109.32ZM114.12 142.976V140H111V142.976H114.12ZM124.366 158.648C122.83 158.648 121.702 157.304 121.702 155.192C121.702 152.768 122.614 151.592 124.366 151.592C126.142 151.592 127.03 152.816 127.03 155.384C127.03 157.376 125.878 158.648 124.366 158.648ZM126.934 161.36C126.934 162.92 125.614 163.904 123.958 163.904C122.398 163.904 121.366 163.064 121.366 161.648H118.462C118.462 164.696 120.886 166.592 124.174 166.592C127.462 166.592 130.054 164.672 130.054 161.12V149.192H126.934V150.656C126.19 149.456 125.11 148.88 123.622 148.88C120.766 148.88 118.462 151.352 118.462 155.024C118.462 158.12 119.806 161.096 123.694 161.096C125.23 161.096 126.502 160.472 126.934 159.416V161.36ZM126.334 143.096C126.286 144.416 125.59 145.184 124.414 145.184C123.238 145.184 122.542 144.416 122.494 143.096H120.526C120.526 145.76 122.422 147.08 124.414 147.08C126.406 147.08 128.302 145.76 128.302 143.096H126.334ZM134.549 161V154.856C134.549 152.96 135.485 152 137.405 152C137.693 152 137.981 152.024 138.269 152.072V148.88H137.861C136.589 148.88 135.389 149.024 134.357 150.608V149.192H131.429V161H134.549ZM141.365 153.944C141.485 152.312 142.517 151.352 143.765 151.352C144.989 151.352 146.141 152.192 146.189 153.944H141.365ZM149.405 155.912C149.405 151.232 147.485 148.88 143.861 148.88C140.237 148.88 138.149 151.232 138.149 154.88C138.149 159.152 140.117 161.312 144.053 161.312C146.573 161.312 148.517 159.944 149.237 157.52H146.021C145.805 158.336 144.917 158.84 143.909 158.84C142.373 158.84 141.365 157.688 141.269 155.912H149.405ZM161.187 161V152.816C161.187 150.248 159.531 148.88 157.275 148.88C155.379 148.88 154.179 149.6 153.459 150.92V149.192H150.483V161H153.603V154.232C153.603 152.432 154.395 151.52 156.027 151.52C157.515 151.52 158.043 152.024 158.043 153.848V161H161.187ZM179.45 161V152.816C179.45 150.608 177.794 148.88 175.418 148.88C173.93 148.88 172.874 149.456 172.226 150.752C171.314 149.384 170.546 148.88 168.938 148.88C167.378 148.88 166.274 149.36 165.482 150.92V149.192H162.554V161H165.674V153.824C165.674 152.288 166.322 151.52 167.57 151.52C168.938 151.52 169.442 152 169.442 153.896V161H172.562V153.944C172.562 152.504 173.402 151.424 174.554 151.424C175.658 151.424 176.402 152.432 176.402 153.848V161H179.45ZM183.599 153.944C183.719 152.312 184.751 151.352 185.999 151.352C187.223 151.352 188.375 152.192 188.423 153.944H183.599ZM191.639 155.912C191.639 151.232 189.719 148.88 186.095 148.88C182.471 148.88 180.383 151.232 180.383 154.88C180.383 159.152 182.351 161.312 186.287 161.312C188.807 161.312 190.751 159.944 191.471 157.52H188.255C188.039 158.336 187.151 158.84 186.143 158.84C184.607 158.84 183.599 157.688 183.503 155.912H191.639ZM200.23 161.36C200.23 162.92 199.198 163.904 198.07 163.904C196.438 163.904 195.622 163.04 195.622 161.648H192.718C192.718 164.696 194.47 166.592 197.926 166.592C200.95 166.592 203.35 164.648 203.35 161.312V149.192H200.23V156.392C200.23 157.664 199.246 158.6 197.83 158.6C196.51 158.6 195.838 157.856 195.838 156.392V149.192H192.718V156.848C192.718 159.44 194.566 161.12 197.038 161.12C198.502 161.12 199.798 160.496 200.23 159.44V161.36ZM207.717 153.944C207.837 152.312 208.869 151.352 210.117 151.352C211.341 151.352 212.493 152.192 212.541 153.944H207.717ZM215.757 155.912C215.757 151.232 213.837 148.88 210.213 148.88C206.589 148.88 204.501 151.232 204.501 154.88C204.501 159.152 206.469 161.312 210.405 161.312C212.925 161.312 214.869 159.944 215.589 157.52H212.373C212.157 158.336 211.269 158.84 210.261 158.84C208.725 158.84 207.717 157.688 207.621 155.912H215.757ZM233.328 161V152.648C233.328 150.296 231.648 148.88 229.224 148.88C227.64 148.88 226.2 149.672 225.744 150.728V144.872H222.624V161H225.744V154.232C225.744 152.648 226.608 151.352 228.168 151.352C229.584 151.352 230.184 151.904 230.184 153.68V161H233.328ZM241.846 156.512C241.822 157.904 240.622 159.08 239.014 159.08C238.03 159.08 237.502 158.648 237.502 157.76C237.502 156.752 238.078 156.248 239.854 155.912C241.006 155.696 241.558 155.528 241.87 155.216L241.846 156.512ZM244.99 161V153.536C244.99 150.56 243.694 148.88 239.95 148.88C236.158 148.88 234.814 150.584 234.766 153.032H237.67C237.814 151.976 238.39 151.28 239.806 151.28C241.03 151.28 241.798 151.736 241.798 152.504C241.798 153.32 241.366 153.632 239.806 153.848C236.662 154.28 234.382 154.664 234.382 158.072C234.382 159.992 235.63 161.312 238.318 161.312C239.902 161.312 241.15 160.76 241.894 159.944C241.918 160.304 241.99 160.712 242.086 161H244.99ZM256.134 161V158.456H249.942L255.966 151.712V149.192H246.366V151.664H251.982L245.958 158.6V161H256.134ZM260.246 161V149.192H257.126V161H260.246ZM264.791 161V154.856C264.791 152.96 265.727 152 267.647 152C267.935 152 268.223 152.024 268.511 152.072V148.88H268.103C266.831 148.88 265.631 149.024 264.599 150.608V149.192H261.671V161H264.791ZM279.041 152.768C278.873 150.224 277.337 148.88 273.929 148.88C270.329 148.88 268.961 150.392 268.961 152.384C268.961 153.44 269.345 154.352 270.449 155.048C271.289 155.576 272.393 155.912 274.385 156.392C275.393 156.632 276.281 156.896 276.281 157.736C276.281 158.624 275.297 158.96 274.193 158.96C272.681 158.96 271.745 158.312 271.745 157.208H268.529C268.577 159.608 270.593 161.312 274.217 161.312C277.577 161.312 279.377 159.848 279.377 157.4C279.377 155.864 278.681 155.048 277.433 154.544C276.521 154.184 275.249 153.92 273.905 153.536C272.633 153.176 271.985 152.888 271.985 152.192C271.985 151.496 272.657 151.208 273.833 151.208C275.249 151.208 275.873 151.616 276.041 152.768H279.041ZM287.409 156.512C287.385 157.904 286.185 159.08 284.577 159.08C283.593 159.08 283.065 158.648 283.065 157.76C283.065 156.752 283.641 156.248 285.417 155.912C286.569 155.696 287.121 155.528 287.433 155.216L287.409 156.512ZM290.553 161V153.536C290.553 150.56 289.257 148.88 285.513 148.88C281.721 148.88 280.377 150.584 280.329 153.032H283.233C283.377 151.976 283.953 151.28 285.369 151.28C286.593 151.28 287.361 151.736 287.361 152.504C287.361 153.32 286.929 153.632 285.369 153.848C282.225 154.28 279.945 154.664 279.945 158.072C279.945 159.992 281.193 161.312 283.881 161.312C285.465 161.312 286.713 160.76 287.457 159.944C287.481 160.304 287.553 160.712 287.649 161H290.553ZM302.633 161V152.816C302.633 150.248 300.977 148.88 298.721 148.88C296.825 148.88 295.625 149.6 294.905 150.92V149.192H291.929V161H295.049V154.232C295.049 152.432 295.841 151.52 297.473 151.52C298.961 151.52 299.489 152.024 299.489 153.848V161H302.633ZM307.263 161V157.76H303.927V161H307.263ZM311.74 161V157.76H308.404V161H311.74ZM316.216 161V157.76H312.88V161H316.216Z" fill="white"/>
</g>
<g filter="url(#filter3_df_2_44)">
<path d="M132.912 304L117.36 279.16L131.904 256.192H120.312L111.6 271.672L102.96 256.192H91.152L105.768 279.592L90.288 304H101.952L111.6 287.584L120.744 304H132.912ZM155.234 290.536C155.162 294.712 151.562 298.24 146.738 298.24C143.786 298.24 142.202 296.944 142.202 294.28C142.202 291.256 143.93 289.744 149.258 288.736C152.714 288.088 154.37 287.584 155.306 286.648L155.234 290.536ZM164.666 304V281.608C164.666 272.68 160.778 267.64 149.546 267.64C138.17 267.64 134.138 272.752 133.994 280.096H142.706C143.138 276.928 144.866 274.84 149.114 274.84C152.786 274.84 155.09 276.208 155.09 278.512C155.09 280.96 153.794 281.896 149.114 282.544C139.682 283.84 132.842 284.992 132.842 295.216C132.842 300.976 136.586 304.936 144.65 304.936C149.402 304.936 153.146 303.28 155.378 300.832C155.45 301.912 155.666 303.136 155.954 304H164.666ZM219.482 304V279.448C219.482 272.824 214.514 267.64 207.386 267.64C202.922 267.64 199.754 269.368 197.81 273.256C195.074 269.152 192.77 267.64 187.946 267.64C183.266 267.64 179.954 269.08 177.578 273.76V268.576H168.794V304H178.154V282.472C178.154 277.864 180.098 275.56 183.842 275.56C187.946 275.56 189.458 277 189.458 282.688V304H198.818V282.832C198.818 278.512 201.338 275.272 204.794 275.272C208.106 275.272 210.338 278.296 210.338 282.544V304H219.482ZM239.779 296.944C234.595 296.944 231.931 293.128 231.931 285.424C231.931 279.448 235.387 275.272 239.851 275.272C244.531 275.272 247.843 279.664 247.843 286C247.843 293.272 245.251 296.944 239.779 296.944ZM232.291 320.776V299.392C234.955 303.136 238.411 304.936 242.803 304.936C251.947 304.936 257.347 297.376 257.347 286.648C257.347 274.696 250.939 267.64 242.011 267.64C237.691 267.64 234.379 269.296 232.147 272.896L232.075 268.576H223.075V320.776H232.291ZM270.123 304V255.616H260.763V304H270.123ZM282.908 282.832C283.268 277.936 286.364 275.056 290.108 275.056C293.78 275.056 297.236 277.576 297.38 282.832H282.908ZM307.028 288.736C307.028 274.696 301.268 267.64 290.396 267.64C279.524 267.64 273.26 274.696 273.26 285.64C273.26 298.456 279.164 304.936 290.972 304.936C298.532 304.936 304.364 300.832 306.524 293.56H296.876C296.228 296.008 293.564 297.52 290.54 297.52C285.932 297.52 282.908 294.064 282.62 288.736H307.028ZM318.297 304V294.28H308.289V304H318.297Z" fill="white"/>
</g>
<path d="M292.363 835.909C357.125 835.909 410.591 874.985 418.614 925.546C419.3 921.221 419.655 916.813 419.655 912.337C419.655 855.537 362.664 809.492 292.363 809.492C222.061 809.492 165.071 855.537 165.071 912.337C165.071 916.813 165.426 921.221 166.112 925.546C174.136 874.984 227.601 835.909 292.363 835.909Z" fill="url(#paint2_radial_2_44)"/>
<path d="M334.949 877.039C392.293 901.356 417.158 956.03 395.18 1003.81C398.275 1000.24 401.125 996.47 403.699 992.507C436.37 942.214 412.392 880.044 350.143 853.648C287.895 827.252 210.947 846.625 178.277 896.918C175.703 900.881 173.481 904.918 171.601 909.005C207.788 867.248 277.605 852.723 334.949 877.039Z" fill="url(#paint3_radial_2_44)"/>
<path d="M348.999 929.448C385.788 972.51 376.357 1030.26 329.413 1064.31C334.207 1062.31 338.899 1060.05 343.458 1057.5C401.315 1025.24 415.843 961.186 375.907 914.441C335.972 867.696 256.695 855.958 198.838 888.224C194.28 890.766 189.991 893.506 185.975 896.419C242.035 873.032 312.21 886.385 348.999 929.448Z" fill="url(#paint4_radial_2_44)"/>
<path d="M331.294 981.128C339.101 1033.07 297.534 1080.66 236.378 1093.19C241.774 1093.22 247.233 1092.98 252.732 1092.44C322.521 1085.59 372.227 1034.33 363.753 977.944C355.279 921.559 291.834 881.399 222.046 888.246C216.547 888.785 211.173 889.601 205.942 890.673C269.033 891.013 323.488 929.186 331.294 981.128Z" fill="url(#paint5_radial_2_44)"/>
<path d="M104.028 998.157C41.1483 985.635 0.810694 937.357 7.99674 886.714C6.04951 890.78 4.39951 894.992 3.07383 899.337C-13.7502 954.487 27.9454 1010.21 96.2039 1023.81C164.462 1037.4 233.435 1003.71 250.26 948.562C251.585 944.217 252.547 939.868 253.162 935.536C230.395 983.077 166.909 1010.68 104.028 998.157Z" fill="url(#paint6_radial_2_44)"/>
<path d="M74.8633 949.988C26.3883 915.29 18.4397 857.397 53.9323 815.253C49.8692 818.122 45.9855 821.232 42.3123 824.582C-4.306 867.097 0.560095 932.096 53.1816 969.761C105.803 1007.43 186.253 1003.49 232.871 960.98C236.544 957.63 239.897 954.14 242.933 950.535C195.429 984.082 123.338 984.686 74.8633 949.988Z" fill="url(#paint7_radial_2_44)"/>
<path d="M76.745 896.386C53.7801 847.462 80.0418 793.215 135.71 769.225C130.462 770.24 125.234 771.535 120.055 773.122C54.322 793.264 21.2441 852.645 46.1732 905.754C71.1024 958.862 144.599 985.587 210.331 965.446C215.511 963.859 220.487 962.028 225.248 959.976C163.89 971.844 99.7098 945.31 76.745 896.386Z" fill="url(#paint8_radial_2_44)"/>
<path d="M109.243 849.63C117.049 797.687 171.505 759.515 234.595 759.174C229.364 758.102 223.991 757.287 218.492 756.747C148.703 749.901 85.2586 790.06 76.7845 846.446C68.3104 902.831 118.016 954.091 187.805 960.938C193.304 961.477 198.763 961.724 204.16 961.695C143.003 949.165 101.436 901.573 109.243 849.63Z" fill="url(#paint9_radial_2_44)"/>
<path d="M164.911 820.432C201.7 777.37 271.875 764.016 327.935 787.403C323.92 784.49 319.63 781.75 315.072 779.208C257.215 746.942 177.938 758.68 138.003 805.425C98.0669 852.171 112.595 916.222 170.452 948.488C175.01 951.03 179.702 953.299 184.497 955.299C137.553 921.242 128.122 863.494 164.911 820.432Z" fill="url(#paint10_radial_2_44)"/>
<path d="M230.998 815.48C288.342 791.164 358.159 805.688 394.346 847.446C392.466 843.359 390.244 839.322 387.67 835.359C354.999 785.066 278.052 765.693 215.803 792.089C153.554 818.485 129.577 880.655 162.247 930.948C164.822 934.911 167.671 938.681 170.766 942.253C148.789 894.47 173.654 839.796 230.998 815.48Z" fill="url(#paint11_radial_2_44)"/>
<path d="M292.363 835.909C357.125 835.909 410.591 874.985 418.614 925.546C419.3 921.221 419.655 916.813 419.655 912.337C419.655 855.537 362.664 809.492 292.363 809.492C222.061 809.492 165.071 855.537 165.071 912.337C165.071 916.813 165.426 921.221 166.112 925.546C174.136 874.984 227.601 835.909 292.363 835.909Z" fill="url(#paint12_radial_2_44)"/>
</g>
<defs>
<filter id="filter0_d_2_44" x="0" y="0" width="419" height="899" filterUnits="userSpaceOnUse" color-interpolation-filters="sRGB">
<feFlood flood-opacity="0" result="BackgroundImageFix"/>
<feColorMatrix in="SourceAlpha" type="matrix" values="0 0 0 0 0 0 0 0 0 0 0 0 0 0 0 0 0 0 127 0" result="hardAlpha"/>
<feOffset dy="4"/>
<feGaussianBlur stdDeviation="2"/>
<feComposite in2="hardAlpha" operator="out"/>
<feColorMatrix type="matrix" values="0 0 0 0 0 0 0 0 0 0 0 0 0 0 0 0 0 0 0.25 0"/>
<feBlend mode="normal" in2="BackgroundImageFix" result="effect1_dropShadow_2_44"/>
<feBlend mode="normal" in="SourceGraphic" in2="effect1_dropShadow_2_44" result="shape"/>
</filter>
<filter id="filter1_bd_2_44" x="-46" y="-40" width="611" height="1091" filterUnits="userSpaceOnUse" color-interpolation-filters="sRGB">
<feFlood flood-opacity="0" result="BackgroundImageFix"/>
<feGaussianBlur in="BackgroundImageFix" stdDeviation="5"/>
<feComposite in2="SourceAlpha" operator="in" result="effect1_backgroundBlur_2_44"/>
<feColorMatrix in="SourceAlpha" type="matrix" values="0 0 0 0 0 0 0 0 0 0 0 0 0 0 0 0 0 0 127 0" result="hardAlpha"/>
<feOffset dx="50" dy="60"/>
<feGaussianBlur stdDeviation="50"/>
<feColorMatrix type="matrix" values="0 0 0 0 0 0 0 0 0 0 0 0 0 0 0 0 0 0 0.05 0"/>
<feBlend mode="normal" in2="effect1_backgroundBlur_2_44" result="effect2_dropShadow_2_44"/>
<feBlend mode="normal" in="SourceGraphic" in2="effect2_dropShadow_2_44" result="shape"/>
</filter>
<filter id="filter2_d_2_44" x="102.36" y="140" width="227.856" height="41.592" filterUnits="userSpaceOnUse" color-interpolation-filters="sRGB">
<feFlood flood-opacity="0" result="BackgroundImageFix"/>
<feColorMatrix in="SourceAlpha" type="matrix" values="0 0 0 0 0 0 0 0 0 0 0 0 0 0 0 0 0 0 127 0" result="hardAlpha"/>
<feOffset dx="9" dy="10"/>
<feGaussianBlur stdDeviation="2.5"/>
<feComposite in2="hardAlpha" operator="out"/>
<feColorMatrix type="matrix" values="0 0 0 0 0 0 0 0 0 0 0 0 0 0 0 0 0 0 0.25 0"/>
<feBlend mode="normal" in2="BackgroundImageFix" result="effect1_dropShadow_2_44"/>
<feBlend mode="normal" in="SourceGraphic" in2="effect1_dropShadow_2_44" result="shape"/>
</filter>
<filter id="filter3_df_2_44" x="89.2881" y="254.616" width="242.009" height="80.16" filterUnits="userSpaceOnUse" color-interpolation-filters="sRGB">
<feFlood flood-opacity="0" result="BackgroundImageFix"/>
<feColorMatrix in="SourceAlpha" type="matrix" values="0 0 0 0 0 0 0 0 0 0 0 0 0 0 0 0 0 0 127 0" result="hardAlpha"/>
<feOffset dx="9" dy="10"/>
<feGaussianBlur stdDeviation="2"/>
<feComposite in2="hardAlpha" operator="out"/>
<feColorMatrix type="matrix" values="0 0 0 0 0 0 0 0 0 0 0 0 0 0 0 0 0 0 0.25 0"/>
<feBlend mode="normal" in2="BackgroundImageFix" result="effect1_dropShadow_2_44"/>
<feBlend mode="normal" in="SourceGraphic" in2="effect1_dropShadow_2_44" result="shape"/>
<feGaussianBlur stdDeviation="0.5" result="effect2_foregroundBlur_2_44"/>
</filter>
<linearGradient id="paint0_linear_2_44" x1="209.5" y1="0" x2="209.5" y2="891" gradientUnits="userSpaceOnUse">
<stop/>
<stop offset="0.520833" stop-color="#00137E"/>
<stop offset="1" stop-color="#A741A9"/>
</linearGradient>
<linearGradient id="paint1_linear_2_44" x1="24.5335" y1="9.61554e-05" x2="633.984" y2="118.809" gradientUnits="userSpaceOnUse">
<stop stop-opacity="0.51"/>
<stop offset="1" stop-color="white" stop-opacity="0"/>
</linearGradient>
<radialGradient id="paint2_radial_2_44" cx="0" cy="0" r="1" gradientUnits="userSpaceOnUse" gradientTransform="translate(292.363 867.519) scale(103.347 83.4991)">
<stop stop-color="white"/>
<stop offset="0.0242" stop-color="#FAFCF8"/>
<stop offset="0.1773" stop-color="#DBECCE"/>
<stop offset="0.3338" stop-color="#C2DEAC"/>
<stop offset="0.4922" stop-color="#AFD391"/>
<stop offset="0.6532" stop-color="#A1CC7E"/>
<stop offset="0.8184" stop-color="#99C773"/>
<stop offset="0.9944" stop-color="#96C66F"/>
</radialGradient>
<radialGradient id="paint3_radial_2_44" cx="0" cy="0" r="1" gradientUnits="userSpaceOnUse" gradientTransform="translate(294.953 922.829) scale(112.388 90.804)">
<stop stop-color="white"/>
<stop offset="0.1259" stop-color="#F0F0F1"/>
<stop offset="0.3664" stop-color="#C9CACB"/>
<stop offset="0.5225" stop-color="#ADAEB0"/>
<stop offset="0.6029" stop-color="#A3A5A7"/>
<stop offset="0.7382" stop-color="#898D90"/>
<stop offset="0.9108" stop-color="#5F6769"/>
<stop offset="1" stop-color="#465053"/>
</radialGradient>
<radialGradient id="paint4_radial_2_44" cx="0" cy="0" r="1" gradientUnits="userSpaceOnUse" gradientTransform="translate(292.214 967.162) scale(113.459 91.6686)">
<stop stop-color="#E1E4EF"/>
<stop offset="0.5" stop-color="#CBD1E4"/>
<stop offset="1" stop-color="#B4BED8"/>
</radialGradient>
<radialGradient id="paint5_radial_2_44" cx="0" cy="0" r="1" gradientUnits="userSpaceOnUse" gradientTransform="translate(285.318 990.34) scale(106.082 85.7088)">
<stop stop-color="white"/>
<stop offset="0.049" stop-color="#F6F0F6"/>
<stop offset="0.199" stop-color="#DEC6DD"/>
<stop offset="0.3524" stop-color="#CAA4C8"/>
<stop offset="0.5077" stop-color="#BA89B8"/>
<stop offset="0.6655" stop-color="#AF76AD"/>
<stop offset="0.8275" stop-color="#A86BA6"/>
<stop offset="1" stop-color="#A667A4"/>
</radialGradient>
<radialGradient id="paint6_radial_2_44" cx="0" cy="0" r="1" gradientUnits="userSpaceOnUse" gradientTransform="translate(126.253 956.766) scale(108.681 87.8088)">
<stop stop-color="#CCDDF2"/>
<stop offset="0.5" stop-color="#ACCAEA"/>
<stop offset="0.5724" stop-color="#A7C8E9"/>
<stop offset="1" stop-color="#90BBE4"/>
</radialGradient>
<radialGradient id="paint7_radial_2_44" cx="0" cy="0" r="1" gradientUnits="userSpaceOnUse" gradientTransform="translate(126.615 905.44) scale(113.995 92.1021)">
<stop stop-color="white"/>
<stop offset="0.0047" stop-color="#FDFDFE"/>
<stop offset="0.149" stop-color="#C9C8E1"/>
<stop offset="0.295" stop-color="#9B9AC8"/>
<stop offset="0.4399" stop-color="#7674B4"/>
<stop offset="0.5835" stop-color="#5A57A4"/>
<stop offset="0.7255" stop-color="#454399"/>
<stop offset="0.8652" stop-color="#393692"/>
<stop offset="1" stop-color="#353290"/>
</radialGradient>
<radialGradient id="paint8_radial_2_44" cx="0" cy="0" r="1" gradientUnits="userSpaceOnUse" gradientTransform="translate(131.558 870.691) scale(110.792 89.5137)">
<stop offset="0.0056" stop-color="#AEB0B7"/>
<stop offset="0.3156" stop-color="#AAAAA8"/>
<stop offset="0.3539" stop-color="#A9A9A6"/>
<stop offset="0.5001" stop-color="#9A9E9E"/>
<stop offset="0.6742" stop-color="#838C92"/>
<stop offset="1" stop-color="#657076"/>
</radialGradient>
<radialGradient id="paint9_radial_2_44" cx="0" cy="0" r="1" gradientUnits="userSpaceOnUse" gradientTransform="translate(155.219 858.842) scale(106.082 85.7088)">
<stop offset="0.0056" stop-color="#E6F3E9"/>
<stop offset="0.4494" stop-color="#C9E6D2"/>
<stop offset="1" stop-color="#ACDABB"/>
</radialGradient>
<radialGradient id="paint10_radial_2_44" cx="0" cy="0" r="1" gradientUnits="userSpaceOnUse" gradientTransform="translate(221.697 858.146) scale(113.459 91.6686)">
<stop stop-color="white"/>
<stop offset="0.0546" stop-color="#FDE8E8"/>
<stop offset="0.1819" stop-color="#F8B6B7"/>
<stop offset="0.3125" stop-color="#F48C8D"/>
<stop offset="0.4442" stop-color="#F16A6B"/>
<stop offset="0.5775" stop-color="#EE4F50"/>
<stop offset="0.713" stop-color="#EC3C3D"/>
<stop offset="0.852" stop-color="#EB3132"/>
<stop offset="1" stop-color="#EB2D2E"/>
</radialGradient>
<radialGradient id="paint11_radial_2_44" cx="0" cy="0" r="1" gradientUnits="userSpaceOnUse" gradientTransform="translate(270.993 861.27) scale(112.388 90.804)">
<stop stop-color="white"/>
<stop offset="0.1006" stop-color="#F5E6DD"/>
<stop offset="0.2424" stop-color="#E9C8B3"/>
<stop offset="0.3875" stop-color="#DFAE91"/>
<stop offset="0.5344" stop-color="#D89B76"/>
<stop offset="0.6837" stop-color="#D28D63"/>
<stop offset="0.8368" stop-color="#CF8558"/>
<stop offset="1" stop-color="#CE8254"/>
</radialGradient>
<radialGradient id="paint12_radial_2_44" cx="0" cy="0" r="1" gradientUnits="userSpaceOnUse" gradientTransform="translate(292.363 867.519) scale(103.347 83.4991)">
<stop stop-color="white"/>
<stop offset="0.1006" stop-color="#F5E6DD"/>
<stop offset="0.2424" stop-color="#E9C8B3"/>
<stop offset="0.3875" stop-color="#DFAE91"/>
<stop offset="0.5344" stop-color="#D89B76"/>
<stop offset="0.6837" stop-color="#D28D63"/>
<stop offset="0.8368" stop-color="#CF8558"/>
<stop offset="1" stop-color="#CE8254"/>
</radialGradient>
<clipPath id="clip0_2_44">
<rect width="411" height="891" fill="white" transform="translate(4)"/>
</clipPath>
</defs>
</svg>
