<svg width="229" height="42" viewBox="0 0 229 42" fill="none" xmlns="http://www.w3.org/2000/svg">
<g filter="url(#filter0_d_11_33940)">
<path d="M8.016 18.696C5.256 18.696 3.648 17.016 3.648 13.248C3.648 9.48 5.208 7.488 8.016 7.488C10.8 7.488 12.336 9.48 12.336 13.248C12.336 17.016 10.416 18.696 8.016 18.696ZM8.016 21.552C12.912 21.552 15.624 18.72 15.624 13.248C15.624 7.776 12.912 4.536 8.016 4.536C3.12 4.536 0.36 7.776 0.36 13.176C0.36 18.552 3.12 21.552 8.016 21.552ZM7.32 2.976V-1.43051e-06H4.2V2.976H7.32ZM12.12 2.976V-1.43051e-06H9V2.976H12.12ZM22.3661 18.648C20.8301 18.648 19.7021 17.304 19.7021 15.192C19.7021 12.768 20.6141 11.592 22.3661 11.592C24.1421 11.592 25.0301 12.816 25.0301 15.384C25.0301 17.376 23.8781 18.648 22.3661 18.648ZM24.9341 21.36C24.9341 22.92 23.6141 23.904 21.9581 23.904C20.3981 23.904 19.3661 23.064 19.3661 21.648H16.4621C16.4621 24.696 18.8861 26.592 22.1741 26.592C25.4621 26.592 28.0541 24.672 28.0541 21.12V9.192H24.9341V10.656C24.1901 9.456 23.1101 8.88 21.6221 8.88C18.7661 8.88 16.4621 11.352 16.4621 15.024C16.4621 18.12 17.8061 21.096 21.6941 21.096C23.2301 21.096 24.5021 20.472 24.9341 19.416V21.36ZM24.3341 3.096C24.2861 4.416 23.5901 5.184 22.4141 5.184C21.2381 5.184 20.5421 4.416 20.4941 3.096H18.5261C18.5261 5.76 20.4221 7.08 22.4141 7.08C24.4061 7.08 26.3021 5.76 26.3021 3.096H24.3341ZM32.5487 21V14.856C32.5487 12.96 33.4847 12 35.4047 12C35.6927 12 35.9807 12.024 36.2687 12.072V8.88H35.8607C34.5887 8.88 33.3887 9.024 32.3567 10.608V9.192H29.4287V21H32.5487ZM39.3651 13.944C39.4851 12.312 40.5171 11.352 41.7651 11.352C42.9891 11.352 44.1411 12.192 44.1891 13.944H39.3651ZM47.4051 15.912C47.4051 11.232 45.4851 8.88 41.8611 8.88C38.2371 8.88 36.1491 11.232 36.1491 14.88C36.1491 19.152 38.1171 21.312 42.0531 21.312C44.5731 21.312 46.5171 19.944 47.2371 17.52H44.0211C43.8051 18.336 42.9171 18.84 41.9091 18.84C40.3731 18.84 39.3651 17.688 39.2691 15.912H47.4051ZM59.1874 21V12.816C59.1874 10.248 57.5314 8.88 55.2754 8.88C53.3794 8.88 52.1794 9.6 51.4594 10.92V9.192H48.4834V21H51.6034V14.232C51.6034 12.432 52.3954 11.52 54.0274 11.52C55.5154 11.52 56.0434 12.024 56.0434 13.848V21H59.1874ZM77.4497 21V12.816C77.4497 10.608 75.7937 8.88 73.4177 8.88C71.9297 8.88 70.8737 9.456 70.2257 10.752C69.3137 9.384 68.5457 8.88 66.9377 8.88C65.3777 8.88 64.2737 9.36 63.4817 10.92V9.192H60.5537V21H63.6737V13.824C63.6737 12.288 64.3217 11.52 65.5697 11.52C66.9377 11.52 67.4417 12 67.4417 13.896V21H70.5617V13.944C70.5617 12.504 71.4017 11.424 72.5537 11.424C73.6577 11.424 74.4017 12.432 74.4017 13.848V21H77.4497ZM81.5994 13.944C81.7194 12.312 82.7514 11.352 83.9994 11.352C85.2234 11.352 86.3754 12.192 86.4234 13.944H81.5994ZM89.6394 15.912C89.6394 11.232 87.7194 8.88 84.0954 8.88C80.4714 8.88 78.3834 11.232 78.3834 14.88C78.3834 19.152 80.3514 21.312 84.2874 21.312C86.8074 21.312 88.7514 19.944 89.4714 17.52H86.2554C86.0394 18.336 85.1514 18.84 84.1434 18.84C82.6074 18.84 81.5994 17.688 81.5034 15.912H89.6394ZM98.2298 21.36C98.2298 22.92 97.1978 23.904 96.0698 23.904C94.4378 23.904 93.6217 23.04 93.6217 21.648H90.7178C90.7178 24.696 92.4698 26.592 95.9258 26.592C98.9498 26.592 101.35 24.648 101.35 21.312V9.192H98.2298V16.392C98.2298 17.664 97.2458 18.6 95.8298 18.6C94.5098 18.6 93.8378 17.856 93.8378 16.392V9.192H90.7178V16.848C90.7178 19.44 92.5658 21.12 95.0378 21.12C96.5018 21.12 97.7978 20.496 98.2298 19.44V21.36ZM105.717 13.944C105.837 12.312 106.869 11.352 108.117 11.352C109.341 11.352 110.493 12.192 110.541 13.944H105.717ZM113.757 15.912C113.757 11.232 111.837 8.88 108.213 8.88C104.589 8.88 102.501 11.232 102.501 14.88C102.501 19.152 104.469 21.312 108.405 21.312C110.925 21.312 112.869 19.944 113.589 17.52H110.373C110.157 18.336 109.269 18.84 108.261 18.84C106.725 18.84 105.717 17.688 105.621 15.912H113.757ZM131.328 21V12.648C131.328 10.296 129.648 8.88 127.224 8.88C125.64 8.88 124.2 9.672 123.744 10.728V4.872H120.624V21H123.744V14.232C123.744 12.648 124.608 11.352 126.168 11.352C127.584 11.352 128.184 11.904 128.184 13.68V21H131.328ZM139.846 16.512C139.822 17.904 138.622 19.08 137.014 19.08C136.03 19.08 135.502 18.648 135.502 17.76C135.502 16.752 136.078 16.248 137.854 15.912C139.006 15.696 139.558 15.528 139.87 15.216L139.846 16.512ZM142.99 21V13.536C142.99 10.56 141.694 8.88 137.95 8.88C134.158 8.88 132.814 10.584 132.766 13.032H135.67C135.814 11.976 136.39 11.28 137.806 11.28C139.03 11.28 139.798 11.736 139.798 12.504C139.798 13.32 139.366 13.632 137.806 13.848C134.662 14.28 132.382 14.664 132.382 18.072C132.382 19.992 133.63 21.312 136.318 21.312C137.902 21.312 139.15 20.76 139.894 19.944C139.918 20.304 139.99 20.712 140.086 21H142.99ZM154.134 21V18.456H147.942L153.966 11.712V9.192H144.366V11.664H149.982L143.958 18.6V21H154.134ZM158.246 21V9.192H155.126V21H158.246ZM162.791 21V14.856C162.791 12.96 163.727 12 165.647 12C165.935 12 166.223 12.024 166.511 12.072V8.88H166.103C164.831 8.88 163.631 9.024 162.599 10.608V9.192H159.671V21H162.791ZM177.041 12.768C176.873 10.224 175.337 8.88 171.929 8.88C168.329 8.88 166.961 10.392 166.961 12.384C166.961 13.44 167.345 14.352 168.449 15.048C169.289 15.576 170.393 15.912 172.385 16.392C173.393 16.632 174.281 16.896 174.281 17.736C174.281 18.624 173.297 18.96 172.193 18.96C170.681 18.96 169.745 18.312 169.745 17.208H166.529C166.577 19.608 168.593 21.312 172.217 21.312C175.577 21.312 177.377 19.848 177.377 17.4C177.377 15.864 176.681 15.048 175.433 14.544C174.521 14.184 173.249 13.92 171.905 13.536C170.633 13.176 169.985 12.888 169.985 12.192C169.985 11.496 170.657 11.208 171.833 11.208C173.249 11.208 173.873 11.616 174.041 12.768H177.041ZM185.409 16.512C185.385 17.904 184.185 19.08 182.577 19.08C181.593 19.08 181.065 18.648 181.065 17.76C181.065 16.752 181.641 16.248 183.417 15.912C184.569 15.696 185.121 15.528 185.433 15.216L185.409 16.512ZM188.553 21V13.536C188.553 10.56 187.257 8.88 183.513 8.88C179.721 8.88 178.377 10.584 178.329 13.032H181.233C181.377 11.976 181.953 11.28 183.369 11.28C184.593 11.28 185.361 11.736 185.361 12.504C185.361 13.32 184.929 13.632 183.369 13.848C180.225 14.28 177.945 14.664 177.945 18.072C177.945 19.992 179.193 21.312 181.881 21.312C183.465 21.312 184.713 20.76 185.457 19.944C185.481 20.304 185.553 20.712 185.649 21H188.553ZM200.633 21V12.816C200.633 10.248 198.977 8.88 196.721 8.88C194.825 8.88 193.625 9.6 192.905 10.92V9.192H189.929V21H193.049V14.232C193.049 12.432 193.841 11.52 195.473 11.52C196.961 11.52 197.489 12.024 197.489 13.848V21H200.633ZM205.263 21V17.76H201.927V21H205.263ZM209.74 21V17.76H206.404V21H209.74ZM214.216 21V17.76H210.88V21H214.216Z" fill="white"/>
</g>
<defs>
<filter id="filter0_d_11_33940" x="0.359985" y="0" width="227.856" height="41.592" filterUnits="userSpaceOnUse" color-interpolation-filters="sRGB">
<feFlood flood-opacity="0" result="BackgroundImageFix"/>
<feColorMatrix in="SourceAlpha" type="matrix" values="0 0 0 0 0 0 0 0 0 0 0 0 0 0 0 0 0 0 127 0" result="hardAlpha"/>
<feOffset dx="9" dy="10"/>
<feGaussianBlur stdDeviation="2.5"/>
<feComposite in2="hardAlpha" operator="out"/>
<feColorMatrix type="matrix" values="0 0 0 0 0 0 0 0 0 0 0 0 0 0 0 0 0 0 0.25 0"/>
<feBlend mode="normal" in2="BackgroundImageFix" result="effect1_dropShadow_11_33940"/>
<feBlend mode="normal" in="SourceGraphic" in2="effect1_dropShadow_11_33940" result="shape"/>
</filter>
</defs>
</svg>
