<svg width="119" height="66" viewBox="0 0 119 66" fill="none" xmlns="http://www.w3.org/2000/svg">
<path d="M57.216 64L36.48 30.88L55.872 0.255997H40.416L28.8 20.896L17.28 0.255997H1.536L21.024 31.456L0.384 64H15.936L28.8 42.112L40.992 64H57.216ZM86.979 46.048C86.883 51.616 82.083 56.32 75.651 56.32C71.715 56.32 69.603 54.592 69.603 51.04C69.603 47.008 71.907 44.992 79.011 43.648C83.619 42.784 85.827 42.112 87.075 40.864L86.979 46.048ZM99.555 64V34.144C99.555 22.24 94.371 15.52 79.395 15.52C64.227 15.52 58.851 22.336 58.659 32.128H70.275C70.851 27.904 73.155 25.12 78.819 25.12C83.715 25.12 86.787 26.944 86.787 30.016C86.787 33.28 85.059 34.528 78.819 35.392C66.243 37.12 57.123 38.656 57.123 52.288C57.123 59.968 62.115 65.248 72.867 65.248C79.203 65.248 84.195 63.04 87.171 59.776C87.267 61.216 87.555 62.848 87.939 64H99.555ZM118.115 64V51.04H104.771V64H118.115Z" fill="white"/>
</svg>
