<svg width="243" height="100" viewBox="0 0 243 100" fill="none" xmlns="http://www.w3.org/2000/svg">
<g filter="url(#filter0_df_11_33933)">
<path d="M43.912 69L28.36 44.16L42.904 21.192H31.312L22.6 36.672L13.96 21.192H2.152L16.768 44.592L1.288 69H12.952L22.6 52.584L31.744 69H43.912ZM66.2343 55.536C66.1623 59.712 62.5623 63.24 57.7383 63.24C54.7863 63.24 53.2023 61.944 53.2023 59.28C53.2023 56.256 54.9303 54.744 60.2583 53.736C63.7143 53.088 65.3703 52.584 66.3063 51.648L66.2343 55.536ZM75.6663 69V46.608C75.6663 37.68 71.7783 32.64 60.5463 32.64C49.1703 32.64 45.1383 37.752 44.9943 45.096H53.7063C54.1383 41.928 55.8663 39.84 60.1143 39.84C63.7863 39.84 66.0903 41.208 66.0903 43.512C66.0903 45.96 64.7943 46.896 60.1143 47.544C50.6823 48.84 43.8423 49.992 43.8423 60.216C43.8423 65.976 47.5863 69.936 55.6503 69.936C60.4023 69.936 64.1463 68.28 66.3783 65.832C66.4503 66.912 66.6663 68.136 66.9543 69H75.6663ZM130.482 69V44.448C130.482 37.824 125.514 32.64 118.386 32.64C113.922 32.64 110.754 34.368 108.81 38.256C106.074 34.152 103.77 32.64 98.9459 32.64C94.2659 32.64 90.9539 34.08 88.5779 38.76V33.576H79.7939V69H89.1539V47.472C89.1539 42.864 91.0979 40.56 94.8419 40.56C98.9459 40.56 100.458 42 100.458 47.688V69H109.818V47.832C109.818 43.512 112.338 40.272 115.794 40.272C119.106 40.272 121.338 43.296 121.338 47.544V69H130.482ZM150.779 61.944C145.595 61.944 142.931 58.128 142.931 50.424C142.931 44.448 146.387 40.272 150.851 40.272C155.531 40.272 158.843 44.664 158.843 51C158.843 58.272 156.251 61.944 150.779 61.944ZM143.291 85.776V64.392C145.955 68.136 149.411 69.936 153.803 69.936C162.947 69.936 168.347 62.376 168.347 51.648C168.347 39.696 161.939 32.64 153.011 32.64C148.691 32.64 145.379 34.296 143.147 37.896L143.075 33.576H134.075V85.776H143.291ZM181.123 69V20.616H171.763V69H181.123ZM193.908 47.832C194.268 42.936 197.364 40.056 201.108 40.056C204.78 40.056 208.236 42.576 208.38 47.832H193.908ZM218.028 53.736C218.028 39.696 212.268 32.64 201.396 32.64C190.524 32.64 184.26 39.696 184.26 50.64C184.26 63.456 190.164 69.936 201.972 69.936C209.532 69.936 215.364 65.832 217.524 58.56H207.876C207.228 61.008 204.564 62.52 201.54 62.52C196.932 62.52 193.908 59.064 193.62 53.736H218.028ZM229.297 69V59.28H219.289V69H229.297Z" fill="white"/>
</g>
<defs>
<filter id="filter0_df_11_33933" x="0.287964" y="19.616" width="242.009" height="80.16" filterUnits="userSpaceOnUse" color-interpolation-filters="sRGB">
<feFlood flood-opacity="0" result="BackgroundImageFix"/>
<feColorMatrix in="SourceAlpha" type="matrix" values="0 0 0 0 0 0 0 0 0 0 0 0 0 0 0 0 0 0 127 0" result="hardAlpha"/>
<feOffset dx="9" dy="10"/>
<feGaussianBlur stdDeviation="2"/>
<feComposite in2="hardAlpha" operator="out"/>
<feColorMatrix type="matrix" values="0 0 0 0 0 0 0 0 0 0 0 0 0 0 0 0 0 0 0.25 0"/>
<feBlend mode="normal" in2="BackgroundImageFix" result="effect1_dropShadow_11_33933"/>
<feBlend mode="normal" in="SourceGraphic" in2="effect1_dropShadow_11_33933" result="shape"/>
<feGaussianBlur stdDeviation="0.5" result="effect2_foregroundBlur_11_33933"/>
</filter>
</defs>
</svg>
